<?xml version="1.0" standalone="no"?>
<!DOCTYPE svg PUBLIC "-//W3C//DTD SVG 20010904//EN"
 "http://www.w3.org/TR/2001/REC-SVG-20010904/DTD/svg10.dtd">
<svg version="1.0" xmlns="http://www.w3.org/2000/svg"
 width="1024.000000pt" height="1024.000000pt" viewBox="0 0 1024.000000 1024.000000"
 preserveAspectRatio="xMidYMid meet">

<g transform="translate(0.000000,1024.000000) scale(0.100000,-0.100000)"
fill="#000000" stroke="none">
<path d="M4860 9569 c-143 -7 -469 -44 -479 -54 -11 -11 40 -155 64 -181 27
-29 32 -50 13 -57 -10 -3 -10 -13 0 -48 26 -93 173 -670 202 -794 72 -314 140
-587 150 -605 14 -25 38 -25 165 3 l100 22 11 95 c6 52 14 113 17 135 l7 40
-14 -45 c-16 -51 -16 -50 -20 40 -13 256 -14 311 -6 275 7 -36 8 -34 6 23 0
38 -5 61 -11 58 -7 -2 -9 10 -6 33 l4 36 9 -30 c6 -16 13 -46 18 -65 l7 -35 8
33 c7 30 10 32 51 32 41 0 44 -2 44 -26 0 -25 -2 -26 -45 -22 l-45 3 1 -40 c1
-23 4 -30 6 -17 4 18 11 22 44 22 21 0 39 -4 39 -10 0 -5 18 -10 40 -10 33 0
40 -3 40 -20 0 -17 7 -20 40 -20 33 0 40 3 40 20 0 17 -7 20 -40 20 l-40 0 0
50 0 50 40 0 40 0 0 -40 c0 -29 4 -40 15 -40 11 0 15 11 15 38 1 20 12 57 25
82 l24 45 1 -52 c0 -44 5 -56 31 -82 32 -33 32 -39 -1 -19 -25 16 -34 6 -25
-29 4 -15 10 -22 12 -15 3 6 9 9 14 6 6 -3 20 2 31 13 21 18 21 18 10 -3 -6
-12 -18 -24 -27 -27 -18 -8 -9 -37 12 -37 9 0 21 7 27 16 10 13 32 16 121 15
59 -1 111 -4 114 -6 3 -3 0 -14 -6 -23 -17 -28 13 -47 70 -43 10 1 17 9 17 21
0 11 3 20 6 20 12 0 33 -28 26 -35 -4 -4 -2 -6 3 -5 33 7 45 -1 45 -30 0 -28
2 -30 40 -30 22 0 40 5 40 10 0 6 18 10 40 10 36 0 40 -2 40 -25 0 -22 4 -25
34 -25 18 0 50 7 70 15 46 20 56 13 56 -34 0 -43 -52 -177 -68 -174 -5 1 -8
-6 -5 -16 2 -10 -3 -25 -11 -34 -9 -8 -16 -22 -16 -29 0 -7 -41 -94 -90 -192
-50 -99 -90 -187 -90 -197 0 -10 10 -24 23 -30 12 -6 31 -20 43 -31 29 -26 66
-32 62 -10 -4 24 102 233 115 225 6 -4 7 -1 2 6 -8 15 13 61 29 61 6 0 5 -5
-2 -12 -7 -7 -12 -19 -12 -27 0 -14 1 -14 10 -1 5 8 10 10 10 4 0 -17 82 5 97
25 6 9 15 13 19 9 4 -4 1 -14 -5 -22 -9 -10 -10 -20 -3 -32 7 -12 6 -24 -1
-36 -17 -27 3 -52 46 -58 33 -5 34 -7 22 -24 -8 -10 -18 -15 -24 -11 -6 3 -11
2 -11 -4 0 -5 5 -11 12 -13 14 -5 38 22 140 157 42 55 119 143 172 195 53 52
96 100 96 107 0 7 -5 22 -12 32 -13 21 -23 3 249 401 137 200 363 539 363 544
0 9 -191 107 -340 174 -711 320 -1420 452 -2200 411z m2140 -734 c30 -15 40
-32 32 -52 -3 -9 -32 -13 -97 -13 -106 0 -124 12 -80 56 29 28 98 33 145 9z
m-445 -184 c45 -21 79 -55 90 -88 6 -23 9 -23 180 -23 169 0 175 -1 202 -24
24 -21 26 -27 16 -48 -8 -18 -22 -27 -50 -31 -21 -4 -343 -7 -715 -7 -445 0
-678 -3 -678 -10 0 -14 -71 -12 -103 3 -56 26 -52 109 7 130 16 6 -23 47 -46
47 -10 0 -18 7 -18 16 0 12 5 14 18 9 9 -4 27 -10 40 -12 12 -3 22 -9 22 -14
0 -5 7 -9 15 -9 8 0 15 -5 15 -11 0 -5 -4 -8 -9 -4 -11 6 -26 -13 -17 -22 10
-10 275 -13 301 -3 17 7 24 7 20 0 -16 -26 11 -6 47 34 31 36 47 46 82 51 58
9 114 -8 156 -47 32 -30 41 -33 113 -36 54 -3 77 -1 77 8 0 6 4 9 9 6 5 -4 24
12 42 35 54 68 112 84 184 50z m-1355 -21 c0 -5 -18 -10 -40 -10 -22 0 -40 5
-40 10 0 6 18 10 40 10 22 0 40 -4 40 -10z m675 -39 c-3 -6 -11 -11 -16 -11
-5 0 -4 6 3 14 14 16 24 13 13 -3z m-263 -13 c-7 -7 -12 -8 -12 -2 0 14 12 26
19 19 2 -3 -1 -11 -7 -17z m-335 -18 c-1 -16 -8 -20 -39 -20 -27 0 -38 -4 -38
-15 0 -10 -11 -15 -35 -15 -19 0 -35 4 -35 9 0 5 -3 16 -6 25 -5 13 2 16 35
16 23 0 41 5 41 10 0 6 18 10 39 10 34 0 40 -3 38 -20z m316 -7 c-7 -2 -19 -2
-25 0 -7 3 -2 5 12 5 14 0 19 -2 13 -5z m134 -140 c-20 -2 -52 -2 -70 0 -17 2
0 4 38 4 39 0 53 -2 32 -4z m553 -128 c0 -5 -5 -3 -10 5 -5 8 -10 20 -10 25 0
6 5 3 10 -5 5 -8 10 -19 10 -25z m-237 18 c-24 -2 -62 -2 -85 0 -24 2 -5 4 42
4 47 0 66 -2 43 -4z m216 -51 c-5 -2 -9 -11 -9 -20 0 -12 -3 -13 -8 -5 -4 6
-25 13 -47 16 -40 4 -40 4 8 5 41 2 47 5 48 25 0 21 1 21 8 2 5 -11 4 -21 0
-23z m125 -537 c-7 -16 -24 -21 -24 -6 0 8 7 13 27 20 1 1 0 -6 -3 -14z"/>
<path d="M5493 8527 c-10 -12 -11 -17 -3 -10 8 6 24 13 35 15 17 3 18 5 3 10
-10 4 -23 -1 -35 -15z"/>
<path d="M3295 9211 c-324 -135 -464 -206 -755 -384 -218 -133 -509 -369 -756
-613 -144 -143 -284 -293 -284 -304 0 -4 29 -10 64 -13 34 -3 87 -15 117 -26
30 -12 55 -21 55 -21 1 0 5 17 9 38 17 94 65 163 145 210 39 23 56 27 125 27
69 0 86 -4 126 -27 89 -53 146 -140 151 -236 l3 -52 55 0 c55 0 55 1 100 57
81 103 177 142 290 119 63 -13 130 -54 164 -99 11 -15 26 -25 33 -23 7 3 10
-1 7 -9 -3 -8 -1 -30 6 -49 6 -20 12 -49 12 -65 1 -26 6 -30 47 -41 25 -7 58
-16 73 -22 15 -5 32 -7 39 -2 8 5 9 3 4 -6 -6 -10 -4 -12 10 -6 10 3 41 -2 71
-14 60 -22 69 -19 25 8 -28 17 -27 17 110 20 137 3 140 2 163 -22 17 -19 25
-23 34 -14 18 18 14 38 -5 38 -14 0 -15 2 -4 9 11 7 11 9 0 14 -8 4 7 6 33 5
30 -1 59 5 82 17 35 19 47 35 25 35 -5 0 -7 4 -4 10 9 14 45 -11 45 -31 0 -9
6 -16 13 -15 6 0 13 -3 14 -8 0 -5 8 -13 17 -18 10 -6 14 -17 10 -36 -6 -30 7
-45 116 -137 42 -35 61 -45 80 -42 22 5 23 4 7 -8 -17 -12 -17 -14 0 -44 22
-37 33 -40 33 -7 0 13 7 26 15 30 22 8 18 23 -7 31 -20 6 -21 8 -5 12 11 3 16
11 13 18 -3 10 0 12 12 8 15 -6 14 -3 -2 15 -22 25 -15 42 9 22 8 -7 15 -26
15 -43 0 -19 4 -27 9 -21 6 5 6 28 -1 59 -6 28 -13 44 -15 38 -8 -22 -23 -14
-23 10 0 13 11 37 25 53 21 24 27 27 35 14 5 -8 10 -21 10 -29 0 -11 4 -9 15
5 14 18 14 18 15 -6 0 -20 2 -22 10 -10 8 12 10 10 10 -8 0 -13 4 -21 9 -18 5
3 11 -7 14 -22 8 -41 36 -110 37 -89 0 11 5 15 11 11 6 -3 9 -14 6 -24 -9 -34
31 -31 78 6 25 19 50 34 55 34 16 0 12 22 -14 70 -154 297 -315 608 -411 795
-64 127 -118 231 -120 233 -1 1 -18 -5 -38 -13 -31 -13 -116 -15 -567 -15
l-531 0 3 33 c2 25 10 36 38 49 30 15 65 18 243 18 l208 0 36 28 c31 23 46 27
103 27 56 0 73 -4 108 -27 41 -28 44 -28 196 -28 85 0 157 3 159 8 3 4 -36 81
-85 172 -49 91 -116 218 -149 283 -41 80 -66 117 -77 117 -9 0 -80 -27 -157
-59z m-807 -992 c3 -23 -1 -27 -27 -31 -52 -8 -91 2 -91 23 0 25 28 39 75 36
35 -2 40 -5 43 -28z m192 11 c16 -30 4 -40 -50 -40 -36 0 -49 4 -54 17 -16 40
83 62 104 23z m1416 -535 c-3 -8 -1 -15 5 -15 6 0 7 -5 3 -11 -5 -8 -10 -6
-16 5 -5 9 -6 21 -3 26 10 15 18 12 11 -5z"/>
<path d="M7896 8544 c-38 -41 -94 -105 -125 -142 -61 -74 -82 -97 -216 -244
-49 -55 -91 -104 -93 -109 -2 -5 79 -9 201 -9 204 0 205 0 253 27 67 38 157
39 205 3 29 -20 45 -24 114 -25 78 -1 81 0 129 38 27 21 68 43 92 49 24 7 44
15 44 19 0 16 -470 430 -520 459 -12 6 -32 -10 -84 -66z m179 -220 c17 -11 25
-24 23 -38 -3 -20 -10 -21 -135 -24 l-133 -3 0 24 c0 29 19 47 63 58 47 12
153 2 182 -17z"/>
<path d="M5086 8329 c-8 -42 0 -50 9 -9 4 17 5 34 2 36 -2 3 -7 -10 -11 -27z"/>
<path d="M5660 8310 c0 -5 5 -10 10 -10 6 0 10 5 10 10 0 6 -4 10 -10 10 -5 0
-10 -4 -10 -10z"/>
<path d="M5845 8239 c-4 -5 -11 -7 -16 -4 -5 4 -9 2 -9 -3 0 -11 48 -13 55 -2
3 4 -2 10 -10 14 -8 3 -17 1 -20 -5z"/>
<path d="M5093 8200 c0 -25 2 -35 4 -22 2 12 2 32 0 45 -2 12 -4 2 -4 -23z"/>
<path d="M5111 8224 c0 -11 3 -14 6 -6 3 7 2 16 -1 19 -3 4 -6 -2 -5 -13z"/>
<path d="M5699 8232 c10 -7 11 -14 1 -32 -6 -12 -9 -24 -6 -28 3 -3 6 0 6 6 0
7 9 21 20 32 11 11 16 20 11 20 -5 0 -18 3 -28 6 -13 4 -15 3 -4 -4z"/>
<path d="M5780 8231 c0 -6 5 -13 10 -16 6 -3 10 1 10 9 0 9 -4 16 -10 16 -5 0
-10 -4 -10 -9z"/>
<path d="M5440 8200 c0 -13 30 -13 50 0 11 7 7 10 -17 10 -18 0 -33 -4 -33
-10z"/>
<path d="M5890 8126 c0 -2 7 -6 15 -10 8 -3 15 -1 15 4 0 6 -7 10 -15 10 -8 0
-15 -2 -15 -4z"/>
<path d="M5706 8113 c6 -4 14 -15 17 -23 5 -11 6 -9 4 4 -1 11 -9 21 -17 23
-10 3 -11 2 -4 -4z"/>
<path d="M5680 8101 c0 -10 19 -25 25 -20 1 2 -3 10 -11 17 -8 7 -14 8 -14 3z"/>
<path d="M6201 8098 c0 -9 -4 -25 -7 -35 -5 -17 -5 -17 6 0 6 10 9 25 7 35 -4
15 -5 15 -6 0z"/>
<path d="M5560 8090 c-12 -8 -9 -10 13 -10 15 0 27 5 27 10 0 13 -20 13 -40 0z"/>
<path d="M5102 7980 c0 -14 2 -19 5 -12 2 6 2 18 0 25 -3 6 -5 1 -5 -13z"/>
<path d="M7390 7941 c-37 -6 -67 -35 -224 -217 -38 -43 -99 -111 -135 -150
-36 -39 -80 -86 -96 -105 -17 -19 -113 -128 -215 -242 -102 -115 -197 -223
-213 -241 l-28 -32 59 -126 58 -126 20 29 c17 26 20 28 32 12 6 -9 12 -11 12
-5 0 7 4 12 9 12 5 0 9 -11 9 -25 0 -33 2 -35 52 -46 28 -6 47 -6 58 1 14 9
12 10 -10 5 -16 -3 -28 -3 -28 -1 0 8 167 116 179 116 7 0 9 5 6 10 -3 6 -2
10 4 10 5 0 23 12 40 26 24 20 31 34 31 60 0 24 4 33 12 28 8 -5 9 -2 5 9 -3
10 -2 17 3 17 6 0 11 -6 11 -12 1 -7 4 0 8 17 4 19 13 31 26 34 28 5 36 21 30
58 -3 19 -1 34 6 39 8 5 9 3 4 -6 -6 -10 -4 -12 8 -7 8 3 21 -1 28 -9 10 -12
10 -15 -2 -12 -8 2 -13 -4 -13 -14 1 -10 -2 -16 -6 -13 -4 3 -10 -2 -14 -10
-3 -8 -1 -17 4 -20 6 -4 10 0 10 7 1 8 7 5 16 -7 16 -20 16 -20 9 2 -5 18 -1
25 19 34 40 19 39 63 -3 96 -19 15 -35 17 -27 4 6 -9 -17 -22 -37 -20 -7 0 -3
5 8 10 15 7 10 8 -20 4 -24 -2 -35 -1 -26 4 9 6 10 11 2 15 -28 18 -10 55 52
108 165 144 310 244 444 309 64 31 82 45 88 66 11 46 58 100 115 135 47 29 62
33 120 32 74 -1 121 -18 172 -63 34 -30 38 -31 97 -25 l61 7 0 51 c0 29 7 78
15 109 8 32 15 60 15 62 0 7 -820 3 -860 -4z m-9 -272 c36 -36 22 -53 -51 -59
-100 -8 -122 -3 -118 28 4 34 39 52 101 52 34 0 53 -6 68 -21z m-526 -663
c-16 -13 -27 -27 -23 -31 4 -4 14 0 23 9 19 18 29 21 20 6 -4 -6 -1 -19 7 -28
11 -15 11 -16 -3 -4 -13 10 -21 10 -43 -2 -16 -8 -23 -17 -17 -21 16 -9 13
-45 -3 -51 -8 -3 -13 -13 -10 -22 3 -9 -1 -7 -7 6 -13 23 -29 30 -29 11 0 -7
-8 -18 -17 -25 -10 -7 -15 -16 -11 -20 5 -4 17 1 28 11 11 10 20 13 20 7 0
-15 -38 -35 -50 -27 -6 3 -10 12 -10 18 0 7 -9 13 -20 14 -22 2 -26 -7 -9 -24
13 -13 4 -33 -16 -33 -8 0 -19 -8 -24 -17 -6 -10 -11 -13 -11 -6 0 7 -8 10
-17 7 -10 -3 -6 2 10 11 22 13 26 21 21 40 -5 22 -2 26 25 31 17 4 31 11 31
16 0 5 -6 6 -12 3 -7 -4 3 8 22 27 77 72 133 118 144 118 6 0 -2 -11 -19 -24z
m105 -35 c0 -5 -9 -11 -21 -14 -16 -4 -18 -3 -8 9 13 16 29 19 29 5z m-92 -54
c-2 -11 -8 -22 -15 -24 -7 -3 -9 3 -6 16 3 13 1 21 -6 21 -7 0 -10 4 -6 10 10
16 36 -2 33 -23z"/>
<path d="M6790 6923 c0 -13 5 -23 10 -23 13 0 13 11 0 30 -8 12 -10 11 -10 -7z"/>
<path d="M5101 7904 c0 -11 3 -14 6 -6 3 7 2 16 -1 19 -3 4 -6 -2 -5 -13z"/>
<path d="M5315 7810 c3 -5 10 -10 16 -10 5 0 9 5 9 10 0 6 -7 10 -16 10 -8 0
-12 -4 -9 -10z"/>
<path d="M5558 7753 c7 -3 16 -2 19 1 4 3 -2 6 -13 5 -11 0 -14 -3 -6 -6z"/>
<path d="M5450 7740 c0 -5 5 -10 10 -10 6 0 10 5 10 10 0 6 -4 10 -10 10 -5 0
-10 -4 -10 -10z"/>
<path d="M5580 7710 c0 -5 5 -10 10 -10 6 0 10 5 10 10 0 6 -4 10 -10 10 -5 0
-10 -4 -10 -10z"/>
<path d="M6228 7684 c-5 -4 -8 -26 -7 -48 0 -37 1 -39 10 -16 11 27 8 76 -3
64z"/>
<path d="M6323 7675 c0 -8 4 -12 9 -9 5 3 6 10 3 15 -9 13 -12 11 -12 -6z"/>
<path d="M3273 7635 c0 -28 20 -33 43 -10 19 19 10 35 -20 35 -18 0 -23 -6
-23 -25z"/>
<path d="M6186 7624 c-4 -9 -4 -19 -1 -22 2 -3 7 3 11 12 4 9 4 19 1 22 -2 3
-7 -3 -11 -12z"/>
<path d="M1597 7593 l-328 -3 -45 -70 c-25 -39 -42 -75 -38 -82 4 -6 3 -8 -3
-5 -6 4 -19 -10 -29 -31 -10 -20 -23 -40 -29 -44 -12 -9 -8 -13 37 -31 25 -11
38 -12 41 -4 2 6 11 8 23 3 19 -8 19 -8 -1 -16 -18 -7 -18 -9 -3 -15 9 -4 21
-4 26 -1 5 3 18 -3 28 -12 25 -23 48 -32 103 -38 26 -3 48 -10 49 -15 2 -5 8
-7 13 -3 5 3 9 0 9 -5 0 -6 11 -11 25 -11 14 0 28 -6 31 -14 3 -8 11 -13 19
-10 7 3 15 -2 18 -10 8 -21 27 -20 27 0 0 12 6 15 24 10 14 -3 26 -1 28 5 4
12 38 1 38 -12 0 -5 -7 -9 -15 -9 -8 0 -15 -5 -15 -11 0 -6 9 -8 22 -3 20 6
21 5 10 -9 -10 -11 -20 -14 -35 -8 -12 4 -33 5 -47 1 -22 -5 -19 -7 20 -14
l45 -7 -50 -46 c-27 -26 -87 -82 -132 -125 -45 -43 -90 -78 -100 -78 -21 0
-384 129 -398 141 -5 5 -13 9 -18 9 -20 0 -155 -349 -142 -369 3 -5 18 -12 34
-16 35 -7 181 -61 189 -70 3 -3 -49 -58 -116 -123 l-121 -117 -20 100 c-12 55
-27 142 -35 194 -8 51 -17 95 -20 98 -17 17 -34 -13 -44 -79 -7 -40 -26 -147
-44 -236 -26 -133 -29 -167 -20 -183 15 -24 9 -36 -43 -80 -22 -19 -117 -104
-210 -189 -94 -85 -195 -176 -225 -202 -36 -32 -49 -49 -39 -52 8 -2 72 -14
144 -26 72 -12 170 -31 218 -42 100 -23 96 -13 46 -125 -15 -35 -33 -63 -39
-63 -5 0 -10 -6 -10 -14 0 -8 -16 -35 -35 -60 -44 -58 -46 -94 -5 -121 29 -20
29 -20 7 -29 -12 -5 -33 -10 -46 -12 -21 -3 -22 -1 -8 14 12 13 14 28 7 72
l-8 55 -1 -60 -1 -60 -20 44 c-20 44 -27 78 -11 52 7 -11 10 -9 15 7 4 13 0
31 -10 47 -13 20 -25 25 -55 25 -29 0 -39 4 -39 16 0 14 -9 16 -51 12 -29 -3
-45 -2 -37 3 7 5 9 9 3 10 -5 1 4 5 20 9 28 7 27 8 -15 10 -25 1 -54 5 -65 10
-17 6 -15 8 15 14 19 3 49 7 65 9 17 2 2 5 -32 6 -35 0 -63 5 -63 11 0 5 -10
9 -22 9 -13 -1 -30 1 -38 5 -13 5 -15 -33 -18 -309 -3 -306 -3 -315 16 -315
63 0 199 77 278 158 30 31 54 51 54 46 0 -5 -16 -25 -35 -44 -19 -19 -35 -38
-35 -42 0 -4 -6 -8 -13 -8 -7 0 -18 -5 -25 -12 -10 -10 -7 -15 10 -24 21 -12
20 -12 -15 -10 -29 3 -42 -2 -55 -18 -9 -12 -26 -20 -37 -19 -11 1 -14 0 -7
-3 13 -6 7 -24 -9 -24 -6 0 -7 5 -4 10 3 6 2 10 -3 10 -6 0 -13 -7 -16 -16 -3
-8 -10 -13 -15 -10 -5 3 -11 -1 -14 -9 -4 -9 -1 -12 8 -9 8 3 22 -2 32 -11 16
-17 16 -17 -6 -10 -17 5 -28 0 -47 -20 -14 -15 -31 -24 -38 -22 -18 7 -26 -22
-26 -95 0 -44 4 -58 14 -58 8 0 18 5 22 11 4 8 9 7 15 -2 11 -18 1 -31 -21
-24 -12 4 -19 -1 -23 -15 -7 -27 -9 -510 -2 -510 3 0 31 11 63 23 100 41 236
149 310 245 13 18 27 30 30 28 6 -7 -53 -120 -98 -186 -65 -94 -94 -115 -195
-140 -50 -13 -96 -25 -103 -27 -14 -6 -11 -721 6 -1538 8 -406 11 -458 30
-530 84 -321 273 -568 557 -730 105 -59 215 -100 335 -125 98 -20 125 -20
4212 -18 l4113 3 90 28 c104 32 251 100 333 154 81 54 205 175 275 268 77 103
160 275 194 401 26 97 26 108 34 529 6 385 9 439 28 515 19 78 21 115 21 442
l0 357 -22 12 c-99 53 -276 215 -360 329 -52 72 -118 179 -118 193 0 4 30 -25
67 -64 37 -39 80 -77 97 -86 42 -22 119 -13 153 18 27 25 58 87 49 97 -3 3 -6
-1 -6 -8 0 -7 -12 5 -26 26 -15 21 -50 64 -78 95 -95 102 -175 236 -230 383
-14 37 -26 70 -26 71 0 2 52 -48 116 -111 114 -111 225 -194 332 -248 l53 -27
-3 118 -3 117 -84 59 c-115 82 -210 174 -290 281 -61 82 -138 213 -129 221 2
2 24 -14 48 -36 131 -117 371 -284 438 -304 22 -6 22 -5 22 84 l0 91 -72 36
c-203 102 -361 211 -432 298 -36 43 -47 67 -23 49 6 -6 89 -43 182 -83 94 -40
193 -83 220 -95 28 -13 67 -30 88 -38 l37 -16 0 107 c0 96 -2 108 -17 109 -18
0 -385 152 -533 219 -42 19 -84 34 -95 34 -10 0 -106 -45 -213 -100 -107 -56
-196 -99 -198 -98 -2 2 3 15 10 29 7 13 10 31 8 38 -2 7 0 16 5 20 17 12 53
69 53 85 0 30 -75 16 -193 -36 -67 -29 -105 -33 -54 -6 48 25 283 236 327 294
23 31 59 57 44 33 -4 -7 0 -9 14 -5 16 5 64 -19 193 -98 96 -59 184 -106 197
-106 37 0 51 27 51 95 0 74 -4 84 -54 137 -22 23 -34 38 -26 33 10 -5 12 -4 7
4 -4 6 -12 9 -17 6 -5 -4 -35 18 -66 47 -32 29 -62 58 -69 63 -6 6 -73 69
-150 142 -76 72 -159 150 -184 173 -88 81 -156 148 -209 206 -137 149 -265
276 -269 265 -2 -6 3 -62 12 -124 46 -327 59 -628 35 -820 -11 -82 -15 -91
-48 -124 -31 -30 -134 -105 -189 -138 -15 -9 -91 -55 -101 -62 -13 -9 129
-168 247 -276 23 -21 42 -44 42 -49 0 -15 -81 -121 -87 -114 -3 2 7 27 22 54
15 28 26 55 24 60 -2 5 -26 28 -54 52 -94 81 -196 207 -238 297 -13 27 -32 64
-42 83 -17 29 -20 54 -20 146 0 96 -3 115 -19 133 -27 30 -41 26 -60 -14 -13
-27 -17 -59 -15 -133 2 -95 1 -100 -34 -167 -52 -98 -153 -230 -251 -326 l-84
-82 19 -44 c10 -25 19 -51 19 -59 0 -20 19 -17 75 12 58 31 112 71 174 128
l44 41 -24 -45 c-13 -25 -82 -103 -152 -174 -120 -121 -128 -132 -123 -160 21
-108 120 -121 231 -30 30 24 55 41 55 37 0 -13 -54 -99 -98 -155 -43 -56 -102
-106 -189 -162 -23 -15 -44 -38 -47 -52 -8 -29 16 -79 43 -94 50 -26 138 -3
219 58 17 13 32 20 32 15 0 -6 -22 -42 -50 -81 -46 -66 -113 -126 -230 -204
-51 -35 -55 -75 -11 -119 41 -40 105 -38 216 7 18 7 19 6 6 -10 -38 -46 -335
-267 -358 -265 -16 1 -114 149 -98 149 3 0 27 -11 53 -25 50 -27 91 -32 123
-15 33 18 23 57 -28 114 -27 29 -61 76 -76 104 l-29 53 29 34 c15 19 38 37 51
41 12 3 27 15 33 26 11 21 7 28 -39 80 -27 30 -133 210 -127 216 2 2 13 -1 24
-7 25 -14 71 -4 71 15 0 8 -13 35 -29 61 -16 27 -37 68 -47 91 -14 37 -15 45
-3 53 83 54 279 169 286 169 6 0 18 9 28 20 18 20 17 20 -12 20 -25 0 -33 6
-43 33 -31 84 -28 80 -53 65 -12 -8 -44 -28 -72 -43 -27 -16 -76 -46 -107 -67
-31 -21 -61 -38 -66 -38 -4 0 -18 14 -31 31 -12 16 -28 28 -34 26 -7 -2 -23
-37 -37 -78 -23 -68 -28 -76 -70 -98 -63 -33 -467 -275 -629 -377 -74 -46
-140 -84 -146 -84 -11 0 -55 52 -55 65 0 4 -11 21 -25 39 -14 18 -45 77 -69
130 -42 93 -61 125 -69 115 -2 -2 -27 -53 -56 -114 -29 -60 -68 -133 -88 -162
-20 -30 -33 -58 -30 -67 11 -27 53 -30 87 -6 l30 21 -9 -25 c-23 -60 -67 -136
-113 -194 -40 -51 -47 -66 -37 -78 16 -20 56 -17 95 7 19 11 34 17 34 13 0
-30 -150 -244 -171 -244 -13 0 -11 -44 3 -58 18 -18 40 -15 102 16 31 16 56
27 56 24 0 -15 -101 -151 -145 -196 -81 -81 -140 -116 -194 -116 -25 0 -62 -3
-81 -6 l-36 -6 -18 74 c-9 40 -35 154 -57 253 -55 255 -88 382 -114 440 -40
91 -178 247 -320 362 -85 68 -191 133 -218 133 -10 0 -17 4 -17 10 0 5 -33 10
-72 12 l-73 3 40 14 c22 7 92 16 155 20 l115 6 -35 21 c-63 38 -114 62 -192
89 l-77 27 26 41 c15 23 32 49 38 57 40 53 109 238 151 402 28 113 31 136 33
241 1 76 2 78 24 72 19 -5 18 -4 -4 9 -17 10 -30 29 -37 56 -5 22 -9 40 -8 40
1 0 19 -9 41 -20 94 -48 117 -1 40 81 -25 26 -45 54 -45 61 0 7 9 28 20 45 19
32 20 33 77 27 52 -6 60 -4 78 16 18 20 20 36 20 149 l0 126 80 28 c84 29 125
58 125 89 0 30 -21 31 -141 7 -86 -17 -114 -20 -117 -10 -3 9 -7 9 -16 -2 -9
-11 -132 -47 -160 -47 -12 0 -6 118 7 123 6 3 2 6 -11 6 -33 1 -74 -23 -110
-63 -49 -56 -53 -114 -18 -245 17 -62 17 -64 -4 -120 l-21 -56 25 -45 c14 -25
30 -56 36 -69 13 -31 -1 -48 -22 -27 -9 8 -19 12 -23 8 -5 -4 -5 -1 -1 5 4 7
0 23 -9 35 l-17 23 7 -25 c6 -21 3 -19 -17 10 -14 19 -23 37 -21 40 2 2 8 -2
13 -10 6 -8 10 -10 10 -5 0 18 -17 38 -28 32 -5 -4 -18 3 -28 15 -11 12 -13
18 -5 13 11 -6 13 -4 8 8 -4 11 1 17 16 19 20 4 18 7 -22 47 -25 24 -70 56
-100 70 -47 22 -70 26 -146 26 -73 0 -98 -4 -130 -22 -38 -20 -103 -79 -94
-86 2 -2 42 -10 89 -19 47 -9 110 -22 140 -28 30 -6 66 -20 80 -31 l25 -21
-73 6 c-40 4 -130 17 -200 31 -97 18 -178 26 -339 31 -234 8 -248 5 -271 -53
-13 -31 -82 -569 -82 -634 0 -31 7 -47 29 -70 34 -34 64 -37 107 -10 44 27 50
65 17 115 l-26 40 48 190 c57 227 60 236 79 236 9 0 60 -10 116 -21 88 -19
100 -24 100 -43 0 -11 -23 -95 -50 -186 -28 -91 -50 -174 -50 -185 0 -11 -8
-34 -18 -50 -11 -17 -29 -59 -41 -95 -20 -55 -22 -77 -16 -140 7 -84 33 -151
73 -193 78 -83 259 -119 354 -71 l27 14 11 -58 c7 -31 19 -72 28 -90 14 -32
14 -37 -8 -80 -79 -164 -235 -371 -312 -415 -39 -22 -58 -25 -203 -31 -88 -3
-218 -13 -290 -21 -203 -24 -209 -24 -213 2 -4 30 -19 40 -88 58 -56 15 -60
15 -75 -4 -29 -35 -66 -225 -71 -361 -4 -113 12 -117 81 -23 28 37 75 92 106
122 53 52 57 53 98 47 23 -3 101 -13 172 -21 72 -8 150 -18 175 -21 111 -14
434 -28 463 -20 15 3 51 26 82 51 30 25 59 45 65 45 5 0 9 4 7 10 -1 5 37 47
84 92 47 46 122 123 168 172 l83 89 34 -16 c81 -39 349 -223 392 -270 28 -31
156 -407 138 -407 -14 0 -153 -86 -206 -127 -14 -11 -50 -33 -80 -48 -30 -16
-66 -39 -80 -51 -14 -13 -38 -30 -55 -38 -27 -14 -31 -14 -50 3 -11 10 -45 32
-76 49 -71 38 -100 56 -164 103 -50 37 -183 114 -305 176 -36 18 -85 44 -110
58 -50 28 -70 31 -88 13 -22 -22 -12 -47 33 -79 25 -18 45 -37 45 -43 0 -7 -3
-7 -8 -1 -4 6 -14 11 -22 12 -39 5 -93 23 -115 37 -14 9 -25 14 -25 10 0 -6
125 -130 295 -292 l76 -73 -103 2 -103 2 -6 -204 c-8 -233 -18 -308 -60 -434
-38 -113 -103 -218 -177 -286 l-57 -52 -3 480 -2 480 -77 7 c-42 3 -137 6
-212 7 -111 1 -128 3 -93 11 23 5 42 13 42 18 0 8 78 4 108 -5 23 -8 -49 73
-89 100 -21 14 -42 25 -46 25 -5 0 -1 -4 7 -10 8 -5 11 -12 7 -16 -4 -5 -20 4
-35 20 -22 22 -24 26 -7 21 20 -7 20 -6 1 9 -11 9 -28 14 -38 10 -13 -4 -16
-1 -12 9 3 8 -2 17 -12 21 -14 5 -15 4 -4 -9 9 -11 9 -15 1 -15 -7 0 -9 -4 -6
-10 3 -6 -1 -7 -10 -3 -12 4 -13 8 -5 13 9 6 9 9 0 15 -7 4 -13 -1 -17 -14 -4
-17 -13 -21 -44 -21 -32 0 -39 4 -39 19 0 15 -9 20 -47 23 -48 4 -102 -9 -115
-27 -5 -6 -11 -6 -18 1 -9 9 -9 14 -1 18 22 14 10 27 -24 24 -19 -1 -35 -6
-35 -12 0 -5 -2 -7 -5 -4 -9 9 7 38 21 38 7 0 11 6 8 14 -4 10 -15 13 -38 9
-22 -3 -36 0 -45 11 -9 11 -10 16 -2 16 6 0 11 7 11 15 0 8 -7 15 -15 15 -8 0
-15 5 -15 12 0 6 -9 2 -20 -10 -20 -21 -47 -31 -36 -14 3 5 -4 14 -14 22 -10
8 -16 18 -13 23 3 5 -10 6 -29 3 -30 -5 -36 -2 -52 24 -20 36 -18 36 28 9 53
-31 137 -27 150 7 4 10 -7 29 -29 52 -19 20 -35 41 -35 47 0 5 10 -2 21 -18
11 -15 25 -25 29 -22 5 3 11 -4 15 -15 3 -11 14 -20 23 -20 13 0 14 -2 4 -8
-8 -6 -2 -9 18 -9 l30 0 -31 19 c-17 11 -29 22 -25 25 3 3 18 -2 33 -11 l28
-17 -24 20 c-13 12 -32 21 -43 21 -10 0 -16 4 -13 10 4 6 -1 7 -11 3 -11 -4
-15 -3 -10 5 6 10 -29 28 -46 24 -14 -3 -80 82 -113 148 -19 38 -33 70 -30 70
2 0 19 -9 37 -20 37 -22 69 -25 99 -10 25 14 24 19 -7 55 -41 48 -93 148 -129
247 -33 94 -53 119 -84 111 -20 -5 -32 -29 -82 -168 -54 -149 -94 -200 -159
-200 -32 0 -35 -1 -21 -12 9 -6 26 -9 39 -6 15 4 22 1 22 -10 0 -20 41 -29 88
-18 36 8 39 7 34 -12 -3 -11 -13 -22 -23 -24 -10 -3 -17 -13 -16 -22 1 -18
-43 -84 -52 -76 -3 3 -6 23 -7 45 -2 39 15 58 38 43 6 -3 8 -1 4 5 -3 5 0 13
6 16 7 3 0 2 -17 -1 -36 -8 -53 -23 -47 -42 3 -8 -3 -18 -12 -23 -17 -10 -22
-38 -6 -38 6 0 10 6 10 13 0 8 3 8 9 -2 5 -8 7 -21 3 -29 -4 -11 -1 -13 8 -7
8 5 11 4 6 -3 -7 -12 -66 4 -66 18 0 4 -10 10 -21 13 -16 4 -20 10 -14 24 18
44 18 53 -3 53 -14 0 -22 -8 -24 -22 -4 -27 -34 -32 -60 -10 -11 9 -25 11 -40
6 -13 -4 -35 -7 -49 -5 -16 1 -29 -4 -32 -13 -4 -9 -2 -16 4 -16 6 0 8 -9 4
-20 -3 -11 -2 -20 4 -20 5 0 12 8 15 18 7 20 61 47 76 37 5 -3 10 -14 10 -24
0 -14 6 -17 30 -13 29 4 30 3 30 -36 0 -32 4 -41 21 -45 15 -4 20 -11 15 -22
-3 -9 -2 -13 4 -10 6 4 7 -6 4 -24 -6 -28 -3 -32 26 -45 34 -14 104 -6 124 15
6 5 16 9 23 9 11 0 10 -7 -3 -32 -26 -50 -54 -84 -54 -65 0 11 -5 14 -15 10
-10 -3 -15 0 -13 8 2 10 -8 14 -30 15 -56 2 -112 45 -82 64 7 4 8 18 4 33 -5
23 -12 27 -40 27 -19 0 -34 5 -34 10 0 6 -7 10 -15 10 -8 0 -15 -4 -15 -10 0
-5 -11 -10 -25 -10 -15 0 -25 -6 -25 -14 0 -8 -3 -17 -7 -19 -7 -5 -8 20 -3
78 2 17 3 16 10 -5 7 -21 8 -21 9 -5 0 11 -3 27 -9 35 -8 12 -10 12 -15 -2 -3
-8 -7 -32 -8 -51 -2 -41 -6 -39 -41 25 -17 31 -26 62 -26 93 0 42 2 45 19 35
11 -5 33 -10 50 -10 24 0 34 7 53 41 l22 40 12 -33 c9 -26 13 -29 19 -16 3 9
2 25 -4 36 -6 11 -7 23 -3 28 4 4 -5 1 -19 -8 -31 -20 -54 -6 -39 23 7 12 6
19 -5 22 -7 3 -15 1 -18 -6 -2 -6 -23 15 -47 48 -54 74 -131 217 -104 194 29
-24 50 -29 69 -15 15 11 14 17 -18 77 -19 35 -42 91 -52 124 -42 145 -68 217
-82 222 -36 14 -55 -23 -83 -162 -17 -85 -64 -171 -102 -190 -31 -15 -32 -15
-13 1 20 16 20 16 -3 9 -24 -7 -56 11 -46 26 3 5 -2 9 -11 9 -9 0 -14 -4 -10
-9 3 -6 -4 -15 -16 -21 -29 -16 -18 -23 15 -10 16 6 25 6 21 1 -3 -6 1 -13 8
-18 19 -11 41 -53 27 -53 -5 0 -10 6 -10 13 0 8 -4 7 -10 -3 -8 -13 -10 -13
-10 1 0 14 -15 18 -80 24 -44 4 -80 11 -80 16 0 5 -7 9 -15 9 -8 0 -15 7 -15
15 0 8 -6 12 -14 9 -7 -3 -21 2 -30 11 -14 14 -17 15 -22 1 -3 -8 -14 -14 -25
-13 -14 1 -19 9 -19 30 0 19 -4 27 -12 24 -7 -2 -12 -11 -12 -20 1 -9 -2 -14
-8 -11 -5 3 -6 14 -3 25 4 13 2 19 -8 19 -22 0 -48 35 -41 54 4 11 -2 26 -16
41 l-22 23 41 -10 c22 -6 39 -13 37 -17 -2 -3 2 -14 9 -24 11 -16 13 -16 19
-1 6 16 30 15 32 -2 2 -26 19 -44 40 -44 13 0 24 -4 24 -9 0 -5 10 -7 23 -4
18 4 19 3 7 -6 -13 -10 -13 -12 0 -20 9 -6 19 -6 27 1 17 14 8 26 -28 35 -17
5 -31 13 -31 18 -3 19 -23 32 -93 59 -143 55 -146 57 -166 103 -10 24 -32 100
-49 170 -36 149 -45 173 -63 173 -15 0 -47 -72 -47 -105 0 -53 -70 -181 -125
-230 -22 -19 -47 -64 -41 -74 4 -5 20 -12 36 -16 35 -8 37 -14 10 -48 -20 -25
-22 -25 -42 -9 -38 32 -67 66 -62 74 3 4 0 8 -5 8 -23 0 -9 -31 33 -72 l44
-44 -29 -34 c-16 -19 -29 -29 -29 -23 0 8 -10 11 -29 7 -16 -4 -32 -1 -35 5
-4 6 -16 11 -28 11 -11 0 -22 8 -25 20 -3 11 -11 20 -18 20 -16 0 -28 26 -33
68 -1 6 -9 12 -17 12 -8 0 -15 8 -15 18 0 13 -2 14 -9 4 -6 -11 -10 -11 -18 0
-9 10 -2 13 34 15 34 2 49 -2 58 -14 11 -15 15 -15 29 -4 12 10 14 16 5 21 -6
4 -8 13 -5 19 5 7 16 1 31 -17 14 -16 24 -21 25 -13 0 10 8 12 30 8 17 -4 31
-2 31 3 1 6 2 16 3 23 0 6 11 13 24 15 13 2 26 11 29 20 4 9 11 20 17 24 8 5
7 8 -1 8 -7 0 -17 -8 -22 -17 -9 -15 -10 -13 -9 10 2 24 6 27 28 22 25 -5 25
-5 -2 10 -16 9 -28 20 -28 25 0 6 -11 10 -25 10 -22 0 -30 -9 -26 -32 0 -5 -3
-8 -8 -8 -5 0 -11 -9 -14 -20 -4 -14 -10 -18 -23 -13 -12 4 -15 3 -10 -5 4 -7
5 -12 2 -12 -12 0 -56 24 -56 30 0 4 -18 12 -40 19 -23 7 -40 18 -40 26 0 22
-27 18 -44 -6 -19 -27 -50 -21 -54 11 -2 20 -1 22 7 10 7 -10 11 -11 11 -2 0
22 -5 27 -25 25 -11 -2 -6 2 10 9 78 28 84 54 31 125 -60 80 -70 101 -125 275
-66 206 -66 204 -41 235 11 14 20 32 20 40 0 8 25 69 56 136 31 67 76 165 100
217 24 52 53 111 64 130 11 19 30 54 42 78 12 23 26 42 31 42 46 0 528 -480
765 -762 40 -47 82 -88 95 -92 12 -3 64 -30 116 -61 51 -30 98 -52 104 -48 5
3 8 2 5 -3 -3 -5 6 -18 21 -29 23 -17 24 -17 11 -1 -14 18 -13 18 20 11 19 -4
46 -13 60 -20 14 -7 63 -25 110 -39 47 -14 121 -39 165 -55 44 -16 141 -50
215 -77 74 -26 146 -55 160 -65 14 -9 40 -20 58 -24 17 -3 32 -11 32 -16 0 -6
4 -8 9 -5 12 8 143 -39 134 -48 -4 -4 0 -4 10 0 9 3 23 1 31 -5 7 -6 16 -8 19
-4 4 3 7 0 7 -7 0 -7 3 -11 6 -8 6 6 121 -29 139 -42 6 -4 37 -17 70 -28 33
-11 86 -32 119 -47 32 -14 63 -24 69 -22 10 3 -162 167 -210 198 -36 24 -90
24 -155 -1 -29 -11 -55 -16 -59 -12 -32 38 -307 427 -399 564 -25 38 -49 68
-55 68 -5 0 -34 -10 -63 -22 l-54 -23 6 -47 c3 -30 16 -62 35 -89 36 -48 36
-52 15 -73 -21 -21 -57 -20 -77 2 -22 24 -21 50 1 75 17 19 16 19 -14 13 -30
-7 -38 0 -153 114 -68 66 -121 126 -118 133 6 19 47 20 66 3 19 -17 51 -12 51
7 0 19 -144 156 -190 181 -25 13 -79 33 -120 44 -78 22 -316 62 -363 62 -34 0
-34 13 -3 93 13 34 36 96 51 137 16 41 52 122 82 180 29 58 53 113 53 123 0
10 20 40 45 66 l45 48 0 234 c0 302 -8 429 -27 429 -8 0 -12 4 -8 10 3 5 13 6
23 3 29 -10 98 -86 106 -115 3 -16 12 -28 18 -28 9 0 9 3 0 12 -17 17 -15 24
10 25 13 1 18 -1 13 -5 -9 -6 -11 -27 -6 -57 1 -6 5 -5 9 2 5 8 13 9 22 3 13
-8 12 -10 -2 -10 -10 0 -18 -4 -18 -8 0 -7 132 -188 147 -202 3 -3 0 5 -6 17
-9 17 -9 27 1 43 13 21 28 27 28 11 0 -5 -6 -12 -12 -14 -10 -4 -10 -6 0 -6 6
-1 12 -6 12 -12 0 -8 -6 -7 -17 2 -15 12 -16 12 -9 -6 5 -11 9 -28 10 -38 0
-9 14 -33 29 -53 26 -31 30 -33 41 -19 10 15 12 14 12 -4 0 -11 -4 -17 -8 -15
-16 10 -7 -17 11 -35 11 -11 25 -29 31 -41 6 -11 15 -18 20 -15 5 3 12 0 16
-6 5 -8 3 -9 -6 -4 -8 5 -11 3 -8 -6 3 -8 11 -13 17 -11 7 1 10 -1 8 -5 -8
-12 16 -39 41 -47 27 -9 28 3 3 36 -11 13 -23 37 -26 51 -4 15 -11 24 -16 21
-5 -3 -9 0 -9 5 0 6 4 11 8 11 4 0 8 16 9 35 1 30 -1 34 -13 24 -8 -7 -13 -18
-10 -26 3 -7 1 -13 -3 -13 -5 0 -12 23 -16 51 -7 47 -9 50 -34 47 -24 -3 -26
0 -29 38 -2 31 -8 43 -21 47 -19 5 -27 57 -10 57 5 0 9 -4 9 -10 0 -5 16 -10
35 -10 19 0 35 -5 35 -11 0 -5 -4 -8 -9 -5 -5 4 -20 2 -33 -3 -21 -9 -20 -10
12 -11 19 -1 29 -4 23 -7 -7 -2 -13 -13 -13 -24 0 -13 6 -18 21 -16 22 4 41
26 33 39 -6 10 26 -1 44 -15 9 -8 8 -13 -5 -23 -16 -13 -15 -13 10 -4 17 6 27
6 27 0 0 -6 8 -10 17 -10 15 0 14 -2 -3 -16 -10 -8 -14 -13 -7 -9 15 7 53 -16
53 -32 0 -7 7 -13 16 -13 8 0 12 5 9 10 -9 14 17 12 36 -3 14 -10 14 -14 3
-25 -9 -8 -14 -9 -14 -2 0 6 -4 8 -10 5 -31 -19 16 -29 51 -11 8 4 6 1 -3 -7
-10 -8 -18 -22 -18 -31 0 -18 15 -22 25 -6 3 5 15 15 25 20 16 9 18 8 13 -6
-4 -12 -3 -15 5 -10 7 4 12 1 12 -7 0 -8 9 -17 19 -20 13 -3 18 0 15 7 -3 9 4
11 24 8 16 -2 33 1 36 7 9 15 68 14 101 -1 24 -11 29 -9 46 12 10 14 18 28 16
32 -1 3 -83 61 -182 127 -99 66 -232 156 -295 200 -63 44 -162 111 -218 150
l-104 71 -176 -2 c-98 -2 -325 -4 -505 -5z m-240 -29 c-3 -3 -12 -4 -19 -1 -8
3 -5 6 6 6 11 1 17 -2 13 -5z m116 -1 c-7 -2 -19 -2 -25 0 -7 3 -2 5 12 5 14
0 19 -2 13 -5z m360 0 c-13 -2 -35 -2 -50 0 -16 2 -5 4 22 4 28 0 40 -2 28 -4z
m-528 -22 c-23 -5 -31 -13 -36 -36 -6 -28 -7 -28 -8 -4 -1 32 16 49 49 48 23
-1 23 -2 -5 -8z m538 2 c3 -5 -68 -7 -156 -5 -302 4 -333 8 -90 10 133 1 244
-1 246 -5z m92 -13 c3 -5 1 -10 -4 -10 -6 0 -11 5 -11 10 0 6 2 10 4 10 3 0 8
-4 11 -10z m-177 -22 c3 -15 -4 -18 -37 -18 -23 0 -41 -4 -41 -10 0 -6 -47
-10 -120 -10 -100 0 -120 -2 -120 -15 0 -11 -11 -15 -40 -15 -33 0 -40 3 -40
19 0 16 -8 20 -37 23 -30 2 -39 7 -41 25 l-3 22 238 -2 c217 -2 238 -3 241
-19z m258 -38 c-17 -21 -26 -26 -26 -16 0 9 -4 16 -10 16 -5 0 -10 5 -10 10 0
6 11 10 24 10 14 0 28 5 31 11 4 6 9 8 12 5 3 -3 -6 -19 -21 -36z m-780 3
c-10 -10 -19 5 -10 18 6 11 8 11 12 0 2 -7 1 -15 -2 -18z m46 -73 c-2 -22 -8
-40 -12 -40 -10 0 -11 29 -3 74 7 42 19 14 15 -34z m668 50 c0 -5 -15 -10 -32
-10 l-33 0 30 -24 c28 -23 29 -25 10 -31 -11 -4 -28 -11 -37 -16 -10 -5 -26
-9 -35 -8 -14 0 -15 2 -3 6 28 11 64 43 47 43 -8 0 -17 7 -21 15 -3 8 -12 15
-21 15 -8 0 -15 5 -15 10 0 6 25 10 55 10 30 0 55 -4 55 -10z m17 -27 c-14
-14 -19 -15 -29 -4 -11 10 -10 11 3 6 10 -4 20 -2 24 4 3 6 9 11 13 11 3 0 -1
-8 -11 -17z m-102 -23 c-3 -5 -10 -10 -16 -10 -5 0 -9 5 -9 10 0 6 7 10 16 10
8 0 12 -4 9 -10z m-345 -20 c0 -14 -7 -20 -24 -20 -20 0 -27 -8 -39 -42 l-15
-43 -1 43 -1 42 -40 0 c-33 0 -40 3 -40 20 0 18 7 20 80 20 73 0 80 -2 80 -20z
m-250 -30 c12 -8 11 -10 -7 -10 -13 0 -23 5 -23 10 0 13 11 13 30 0z m553 3
c-7 -2 -21 -2 -30 0 -10 3 -4 5 12 5 17 0 24 -2 18 -5z m67 -8 c-7 -8 -17 -12
-22 -9 -6 4 -5 10 3 15 22 14 33 10 19 -6z m-70 -13 c0 -4 -9 -13 -20 -20 -11
-7 -20 -18 -20 -26 0 -7 -7 -19 -16 -26 -13 -12 -14 -10 -3 16 20 47 59 84 59
56z m39 -15 c0 -9 -2 -8 -6 1 -2 6 -10 9 -15 6 -7 -4 -8 -2 -4 5 9 13 26 5 25
-12z m488 -21 c-5 -15 -37 -20 -37 -6 0 6 5 8 12 4 7 -5 9 -2 5 9 -4 11 -2 14
9 10 8 -3 13 -11 11 -17z m56 5 c23 -15 25 -20 13 -24 -9 -4 -16 -2 -16 4 0 6
-8 8 -17 5 -10 -4 -14 -4 -10 0 4 4 2 13 -4 21 -16 19 1 16 34 -6z m-563 5 c0
-2 -7 -7 -16 -10 -8 -3 -12 -2 -9 4 6 10 25 14 25 6z m-500 -36 c0 -5 -5 -10
-11 -10 -5 0 -7 5 -4 10 3 6 8 10 11 10 2 0 4 -4 4 -10z m60 0 c0 -5 -4 -10
-10 -10 -5 0 -10 5 -10 10 0 6 5 10 10 10 6 0 10 -4 10 -10z m140 -30 c0 -22
-4 -40 -10 -40 -5 0 -10 18 -10 40 0 22 5 40 10 40 6 0 10 -18 10 -40z m270
37 c0 -2 -12 -14 -27 -28 l-28 -24 24 28 c23 25 31 32 31 24z m-370 -17 c0 -5
-2 -10 -4 -10 -3 0 -8 5 -11 10 -3 6 -1 10 4 10 6 0 11 -4 11 -10z m290 -10
c0 -5 -4 -10 -10 -10 -5 0 -10 5 -10 10 0 6 5 10 10 10 6 0 10 -4 10 -10z
m-33 -42 c-3 -8 -6 -5 -6 6 -1 11 2 17 5 13 3 -3 4 -12 1 -19z m731 -105 c-6
-7 -12 -13 -13 -13 -2 0 -5 6 -8 13 -3 7 3 13 14 13 13 0 15 -3 7 -13z m92
-114 c0 -6 -4 -7 -10 -4 -5 3 -10 11 -10 16 0 6 5 7 10 4 6 -3 10 -11 10 -16z
m-187 -1271 c21 -36 21 -37 3 -57 -29 -32 -78 -28 -110 10 -14 17 -23 36 -20
42 21 36 40 48 72 45 27 -2 38 -10 55 -40z m7216 -152 l22 -23 -24 -54 c-13
-30 -43 -78 -66 -107 -70 -88 -271 -236 -271 -199 0 7 5 18 10 23 6 6 32 61
60 124 27 62 60 124 72 138 24 25 157 122 168 122 4 0 17 -11 29 -24z m-934
-267 c92 -69 125 -100 119 -111 -7 -11 -72 -10 -79 2 -4 6 -10 8 -14 6 -16
-10 -123 117 -174 206 -39 68 -33 70 26 6 28 -31 84 -80 122 -109z m-8568 104
c-3 -10 -5 -4 -5 12 0 17 2 24 5 18 2 -7 2 -21 0 -30z m9233 5 c0 -7 -13 -40
-28 -73 -15 -33 -34 -80 -42 -105 -16 -52 -34 -76 -72 -96 -49 -26 -29 -84 29
-84 10 0 57 19 106 43 48 23 87 40 87 36 0 -4 -27 -43 -60 -87 -75 -98 -176
-202 -199 -202 -15 0 -243 -114 -282 -142 -13 -9 -23 -7 -45 11 -143 109 -193
153 -232 206 -44 59 -97 155 -87 155 3 0 28 -18 56 -40 83 -65 159 -73 200
-21 16 20 20 36 16 69 -4 36 -2 42 14 42 10 0 33 13 51 29 18 16 92 61 163
102 72 40 168 94 215 120 89 50 110 57 110 37z m-8420 -161 c0 -16 -18 3 -23
25 -6 22 -5 22 8 4 8 -11 15 -24 15 -29z m-314 -3 c-3 -9 -6 -17 -6 -20 0 -2
-7 -1 -17 3 -13 5 -15 2 -10 -16 5 -22 5 -22 -15 -4 -17 15 -18 18 -4 21 9 2
16 7 16 12 0 5 7 6 17 3 11 -4 14 -3 9 5 -4 7 -2 12 4 12 7 0 9 -7 6 -16z
m338 -10 c3 -8 2 -12 -4 -9 -6 3 -10 10 -10 16 0 14 7 11 14 -7z m-414 -8 c0
-3 -4 -8 -10 -11 -5 -3 -10 -1 -10 4 0 6 5 11 10 11 6 0 10 -2 10 -4z m422
-30 c3 3 8 -9 10 -27 l5 -31 -18 23 c-10 13 -20 33 -23 44 -5 18 -4 19 8 3 7
-10 15 -15 18 -12z m-402 4 c0 -5 -2 -10 -4 -10 -3 0 -8 5 -11 10 -3 6 -1 10
4 10 6 0 11 -4 11 -10z m440 -31 c0 -11 -4 -17 -10 -14 -5 3 -10 15 -10 26 0
11 5 17 10 14 6 -3 10 -15 10 -26z m-590 17 c0 -2 -7 -7 -16 -10 -8 -3 -12 -2
-9 4 6 10 25 14 25 6z m-40 -20 c0 -2 -7 -7 -16 -10 -8 -3 -12 -2 -9 4 6 10
25 14 25 6z m186 -35 c-4 -6 -17 -11 -28 -11 -21 0 -21 0 -2 19 19 19 42 12
30 -8z m595 -11 c32 0 39 -3 39 -20 0 -16 -7 -20 -35 -20 -22 0 -37 -6 -44
-17 -8 -16 -12 -16 -38 -3 -26 14 -62 48 -63 60 0 4 15 4 33 2 23 -3 38 2 48
14 13 16 14 16 17 1 3 -12 14 -17 43 -17z m-871 10 c0 -5 -12 -10 -27 -9 l-28
1 25 8 c14 4 26 8 28 9 1 1 2 -3 2 -9z m750 -75 c0 -5 -5 -3 -10 5 -5 8 -10
20 -10 25 0 6 5 3 10 -5 5 -8 10 -19 10 -25z m-510 -67 c0 -17 -10 -6 -25 25
l-16 32 20 -25 c11 -14 21 -28 21 -32z m550 7 c14 -19 14 -19 -2 -6 -10 7 -18
18 -18 24 0 6 1 8 3 6 1 -2 9 -13 17 -24z m690 -51 c0 -3 -7 -1 -15 6 -8 7
-15 17 -15 22 0 5 7 3 15 -6 8 -8 15 -18 15 -22z m7751 -67 c-71 -209 -154
-351 -262 -449 -34 -32 -59 -58 -55 -58 4 0 -2 -12 -13 -26 -29 -37 -27 -83 5
-117 68 -74 154 -59 256 45 27 27 51 48 53 47 5 -5 -61 -113 -117 -190 -59
-82 -179 -203 -283 -284 -130 -101 -101 -95 -450 -95 -168 0 -305 2 -305 4 0
3 16 31 35 63 38 64 79 168 101 253 8 30 19 68 26 83 27 69 191 168 298 182
111 13 213 78 384 244 112 109 287 303 322 357 31 46 33 23 5 -59z m-9066 -20
c4 5 2 -2 -4 -14 -13 -26 -23 -31 -15 -8 4 8 2 15 -4 15 -6 0 -12 -5 -14 -12
-3 -7 -7 -5 -11 6 -5 11 -3 15 5 10 8 -5 9 -1 4 11 -6 18 -6 18 12 2 10 -9 22
-14 27 -10z m1293 -86 c43 -23 114 16 96 52 -3 7 1 4 9 -6 11 -13 16 -15 20
-5 3 9 7 8 12 -5 10 -24 -27 -63 -66 -71 -17 -3 -28 -10 -24 -16 3 -5 1 -20
-6 -32 -6 -13 -8 -20 -4 -16 4 4 14 1 22 -7 20 -21 33 -19 33 5 0 11 -4 20 -9
20 -5 0 -11 9 -14 20 -5 21 1 24 27 14 11 -4 16 -19 16 -45 0 -32 -4 -39 -19
-39 -10 0 -22 -7 -25 -16 -5 -13 -2 -15 16 -9 52 16 84 17 97 1 11 -13 11 -16
1 -16 -22 0 -6 -10 49 -29 28 -11 59 -18 68 -17 10 2 12 1 5 -1 -18 -6 4 -33
28 -33 9 0 22 -11 28 -25 7 -16 17 -23 27 -19 18 7 20 21 3 26 -6 2 -8 10 -4
16 14 24 27 0 22 -40 -8 -56 -15 -63 -40 -41 -54 46 -116 64 -301 86 -19 2
-35 17 -37 34 0 5 -11 21 -25 37 l-24 29 20 21 c13 14 18 29 14 44 -3 12 0 28
6 35 12 15 5 27 -17 27 -12 0 -12 -3 -2 -15 11 -14 7 -19 -12 -16 -4 0 -2 -10
4 -24 8 -19 8 -28 -3 -41 -12 -15 -15 -13 -31 22 -9 21 -14 42 -12 46 3 4 1 8
-4 8 -5 0 -12 8 -15 18 -3 9 -13 39 -22 67 l-15 50 42 -42 c24 -22 53 -46 66
-52z m5802 85 c0 -3 -9 -21 -21 -41 -17 -28 -19 -38 -9 -50 17 -20 24 -19 59
11 27 22 31 23 31 8 0 -28 -73 -144 -134 -212 -31 -35 -56 -66 -56 -69 0 -4 7
-15 17 -25 19 -22 58 -23 96 -4 44 24 31 4 -23 -33 -58 -39 -60 -54 -3 -21 56
34 83 61 84 84 1 15 3 16 6 5 12 -46 -74 -200 -171 -304 -60 -65 -65 -78 -39
-107 28 -31 78 -20 177 42 20 12 36 17 36 12 0 -5 -18 -42 -39 -81 -44 -78
-118 -175 -178 -232 -42 -41 -122 -99 -134 -99 -4 0 -17 13 -29 29 l-21 30 34
-6 c22 -3 37 0 45 10 10 11 5 23 -26 63 -21 27 -44 63 -52 79 -8 17 -16 33
-18 37 -1 4 11 5 28 2 26 -6 30 -4 30 16 0 13 -7 32 -16 41 -14 16 -15 23 -4
49 7 18 20 30 31 30 10 0 23 8 28 18 5 9 30 26 55 36 25 10 46 22 46 26 0 4
-37 8 -82 9 -86 2 -112 9 -100 27 11 16 88 66 175 113 42 24 77 44 77 45 0 1
-32 -8 -72 -22 -51 -17 -83 -22 -110 -18 -45 7 -97 -12 -131 -47 -12 -13 -89
-61 -171 -107 l-149 -83 -29 34 c-29 35 -100 151 -111 180 -4 13 -1 16 13 12
23 -6 35 1 205 112 248 162 632 403 648 404 4 1 7 -1 7 -3z m-7140 -54 c0 -17
-56 -102 -67 -102 -2 0 9 19 26 42 31 42 31 43 11 52 -20 9 -26 27 -14 39 11
11 44 -13 44 -31z m-32 -16 c3 -4 2 -10 -4 -14 -6 -4 -18 -18 -27 -32 -17 -25
-19 -23 -21 31 -1 22 2 26 21 24 13 -1 27 -5 31 -9z m776 -12 c-18 -13 -17
-14 9 -8 32 7 51 -4 123 -72 59 -56 75 -69 92 -75 15 -5 -54 -109 -72 -109
-19 0 -118 109 -110 122 4 6 3 8 -3 5 -12 -8 -83 74 -83 95 0 7 10 -2 23 -19
12 -18 26 -33 31 -33 5 0 0 10 -12 23 -12 13 -22 28 -22 33 0 5 -9 16 -19 24
-26 18 -20 25 24 27 34 2 36 1 19 -13z m1109 -44 c18 0 38 5 45 12 18 18 14
-4 -9 -48 -19 -36 -20 -37 -14 -9 l5 30 -20 -35 c-15 -27 -19 -30 -20 -15 0
15 -2 17 -9 6 -12 -19 -34 -3 -28 20 3 10 2 21 -2 24 -5 2 -8 19 -9 37 l-1 33
15 -27 c11 -22 22 -28 47 -28z m-903 5 c-11 -13 -10 -14 4 -9 9 3 16 1 16 -5
0 -6 -14 -11 -31 -11 -17 0 -28 4 -24 10 3 6 -2 11 -12 11 -10 1 -2 5 17 9 19
4 37 8 39 9 2 0 -2 -6 -9 -14z m-1139 -2 c-11 -5 -11 -7 0 -14 10 -6 8 -9 -8
-9 -13 0 -23 -4 -23 -9 0 -5 -11 -11 -25 -14 -14 -2 -24 -3 -22 -1 13 14 74
52 82 52 6 0 4 -2 -4 -5z m69 3 c0 -11 -19 -15 -25 -6 -3 5 1 10 9 10 9 0 16
-2 16 -4z m1135 -46 c-4 -12 -9 -19 -12 -17 -3 3 -2 15 2 27 4 12 9 19 12 17
3 -3 2 -15 -2 -27z m-1110 -7 c3 -10 1 -19 -4 -21 -6 -2 -11 -10 -11 -18 0
-17 -12 -18 -28 -2 -16 16 -15 45 1 51 23 10 35 7 42 -10z m8270 -5 c8 -7 63
-64 122 -127 l107 -113 -50 25 c-56 29 -154 128 -184 188 -21 40 -20 48 5 27z
m-8380 -18 c3 -5 -1 -10 -10 -10 -9 0 -13 5 -10 10 3 6 8 10 10 10 2 0 7 -4
10 -10z m-37 -35 c-3 -3 -9 2 -12 12 -6 14 -5 15 5 6 7 -7 10 -15 7 -18z m107
4 c11 -17 -1 -21 -15 -4 -8 9 -8 15 -2 15 6 0 14 -5 17 -11z m1975 7 c0 -3 -4
-8 -10 -11 -5 -3 -10 -1 -10 4 0 6 5 11 10 11 6 0 10 -2 10 -4z m-60 -45 c0
-11 -4 -22 -10 -26 -5 -3 -7 -13 -4 -23 4 -12 3 -13 -3 -4 -11 15 -5 72 8 72
5 0 9 -9 9 -19z m6590 -31 c0 -16 -50 -24 -63 -10 -10 10 -6 11 16 6 16 -4 27
-2 27 4 0 5 5 10 10 10 6 0 10 -4 10 -10z m-6460 -109 c0 -5 -17 -20 -37 -32
-21 -13 -40 -26 -43 -30 -10 -13 -48 -20 -55 -10 -3 6 7 13 22 17 31 7 96 43
101 56 5 11 12 10 12 -1z m215 -71 c-6 -18 -9 -20 -16 -9 -5 8 -9 19 -9 24 0
6 5 3 10 -5 7 -10 10 -11 10 -2 0 7 -7 15 -15 18 -8 4 -12 11 -9 16 12 19 37
-18 29 -42z m-232 -2 c-13 -74 -115 -248 -145 -248 -16 0 -130 45 -211 82 -71
34 -100 59 -112 96 -8 28 0 28 39 -2 44 -33 106 -63 147 -71 58 -11 144 26
206 87 29 29 56 60 59 70 10 31 24 19 17 -14z m-1090 -71 l47 -36 -37 -10
c-70 -20 -96 -14 -122 24 -13 20 -21 38 -17 42 3 3 6 0 7 -8 0 -8 4 -5 9 7 12
31 57 24 113 -19z m1630 -16 c4 -1 6 -4 5 -8 0 -5 2 -16 6 -25 5 -11 2 -24
-10 -35 -16 -16 -17 -16 -12 -1 5 11 0 18 -13 21 -26 7 -27 57 -1 52 9 -2 20
-4 25 -4z m-123 -107 c0 -14 -4 -23 -10 -19 -5 3 -10 15 -10 26 0 10 5 19 10
19 6 0 10 -12 10 -26z m-15 -54 c10 -11 16 -20 13 -20 -3 0 -13 9 -23 20 -10
11 -16 20 -13 20 3 0 13 -9 23 -20z m564 -39 c8 -5 11 -16 6 -30 -4 -12 -2
-21 4 -21 6 0 11 -4 11 -10 0 -19 -15 -10 -37 23 -13 18 -23 36 -23 40 0 10
22 8 39 -2z m5027 -30 c-22 -42 -66 -91 -81 -91 -8 0 -17 -5 -21 -12 -5 -8 -2
-9 10 -5 35 14 -114 -172 -157 -195 -18 -9 -287 -19 -287 -10 0 7 531 342 542
342 5 0 2 -13 -6 -29z m-1482 -41 c26 0 47 7 61 20 15 14 40 21 87 25 l66 5
-18 -38 c-17 -34 -17 -38 -3 -49 9 -7 20 -10 24 -7 26 15 2 -34 -46 -98 -30
-40 -55 -77 -55 -82 0 -4 18 -6 40 -4 22 2 40 2 40 -1 0 -13 -35 -41 -51 -41
-39 0 -203 180 -253 277 -22 44 -21 45 27 18 25 -15 58 -25 81 -25z m-3469 10
c-3 -5 -10 -10 -16 -10 -5 0 -9 5 -9 10 0 6 7 10 16 10 8 0 12 -4 9 -10z
m-2315 -25 c0 4 7 2 15 -5 8 -7 15 -18 15 -24 0 -6 -5 -4 -10 4 -8 12 -12 12
-18 2 -6 -9 -12 -5 -21 14 -11 24 -10 26 3 14 9 -7 16 -9 16 -5z m2320 -2 c10
9 11 9 6 0 -5 -9 0 -13 14 -13 12 0 19 -4 16 -9 -3 -5 1 -11 9 -15 8 -3 15
-10 15 -16 0 -14 -103 44 -109 61 -3 10 2 9 16 -3 15 -14 22 -15 33 -5z
m-2255 -71 c0 -9 5 -16 10 -15 6 1 12 -7 12 -18 1 -12 -2 -17 -9 -13 -8 5 -9
1 -4 -11 6 -15 4 -16 -9 -5 -17 14 -45 63 -45 77 1 4 7 -3 15 -17 l14 -25 -3
33 c-3 25 -1 31 8 22 6 -6 11 -18 11 -28z m-627 -2 c-9 -14 -14 -16 -20 -7 -6
10 5 20 30 26 1 1 -3 -8 -10 -19z m2977 -10 c3 -6 -1 -7 -9 -4 -18 7 -21 14
-7 14 6 0 13 -4 16 -10z m152 -18 c0 -27 -1 -28 -19 -13 -16 14 -17 16 -3 19
8 2 13 8 10 13 -4 5 -2 9 3 9 5 0 9 -13 9 -28z m248 -11 c0 -34 -2 -38 -19
-31 -11 3 -23 17 -27 29 -7 17 -4 24 14 31 33 13 32 13 32 -29z m-355 9 c8 -5
11 -10 5 -10 -5 0 -17 5 -25 10 -8 5 -10 10 -5 10 6 0 17 -5 25 -10z m2315
-77 c14 -36 23 -68 20 -71 -7 -7 -55 -8 -220 -4 l-110 2 75 44 c41 24 99 60
129 80 39 25 58 33 67 25 7 -5 24 -40 39 -76z m-2240 39 c-3 -3 -11 0 -18 7
-9 10 -8 11 6 5 10 -3 15 -9 12 -12z m311 4 c11 -11 11 -16 1 -19 -6 -3 -2 -6
11 -6 13 -1 22 5 22 14 0 8 5 15 11 15 6 0 8 -7 5 -16 -3 -9 -6 -19 -6 -23 0
-4 -6 -8 -12 -8 -7 0 -25 -4 -40 -8 -22 -5 -28 -4 -28 8 0 8 7 18 16 21 13 5
14 9 4 21 -16 19 -3 20 16 1z m-241 -37 c-18 -5 -33 -5 -39 1 -7 7 4 10 30 9
39 -1 39 -1 9 -10z m-2470 -29 l20 -25 -22 19 c-13 11 -23 24 -23 29 0 6 1 8
3 6 1 -2 11 -15 22 -29z m2490 10 c3 -5 -1 -10 -9 -10 -9 0 -16 5 -16 10 0 6
4 10 9 10 6 0 13 -4 16 -10z m295 6 c0 -2 -7 -7 -16 -10 -8 -3 -12 -2 -9 4 6
10 25 14 25 6z m-2695 -16 c-15 -24 -43 -30 -56 -12 -12 15 -12 16 2 5 13 -10
19 -10 35 2 23 17 27 18 19 5z m2461 -21 c8 -14 -10 -11 -32 6 -18 13 -18 14
4 8 12 -3 25 -9 28 -14z m1799 -244 c116 -23 263 -98 347 -174 83 -76 108
-116 108 -170 0 -54 -17 -94 -69 -159 -47 -60 -94 -92 -131 -92 -14 0 -76 30
-138 66 -144 85 -229 114 -330 114 -53 0 -90 -6 -117 -19 -114 -51 -136 -183
-43 -254 49 -38 105 -60 253 -103 357 -101 537 -239 601 -459 28 -96 24 -250
-10 -348 -79 -233 -271 -391 -541 -448 -84 -17 -274 -15 -364 5 -80 18 -205
65 -261 98 -55 34 -162 119 -197 157 -90 100 -83 194 24 298 54 51 97 76 134
75 15 0 73 -32 136 -75 159 -107 223 -131 348 -131 85 -1 106 2 142 22 57 30
93 86 94 143 2 117 -58 164 -306 238 -159 48 -269 93 -353 145 -130 82 -227
213 -253 344 -14 75 -7 225 15 293 62 198 237 363 450 424 133 38 306 41 461
10z m2036 10 c170 -25 310 -93 438 -211 98 -91 120 -149 87 -229 -22 -52 -105
-135 -161 -161 -90 -43 -128 -32 -248 68 -92 76 -166 108 -252 108 -157 0
-259 -99 -285 -276 -12 -84 -13 -544 -1 -636 16 -119 81 -227 164 -270 56 -28
143 -35 201 -15 108 37 166 121 166 239 l0 68 -87 0 c-109 0 -160 21 -198 78
-54 81 -41 210 26 266 50 43 90 47 397 45 277 -3 288 -4 332 -26 25 -13 46
-23 48 -23 1 0 2 39 2 88 0 374 171 681 455 817 124 60 210 78 375 78 170 0
258 -16 369 -69 143 -67 244 -154 324 -280 120 -186 154 -363 144 -754 -6
-238 -19 -323 -69 -461 -93 -255 -283 -426 -543 -490 -124 -31 -325 -31 -440
0 -167 44 -325 143 -424 264 -55 66 -131 204 -152 275 -7 23 -16 41 -21 40 -5
-2 -21 -39 -36 -83 -54 -160 -163 -307 -290 -391 -147 -98 -374 -147 -569
-124 -292 35 -517 188 -647 440 -55 105 -90 222 -106 353 -16 126 -7 493 14
592 40 191 122 342 253 466 188 180 451 257 734 214z m-6655 -30 c45 -26 86
-75 112 -133 15 -33 17 -104 20 -749 l3 -713 252 0 c184 0 256 -3 265 -12 8
-8 12 -66 12 -195 0 -174 -1 -183 -21 -193 -14 -8 -130 -10 -377 -8 -344 3
-359 4 -414 26 -106 43 -191 148 -217 270 -15 74 -15 1440 0 1514 25 115 93
193 194 219 47 12 126 0 171 -26z m1884 -14 c6 -11 10 -92 10 -190 0 -141 -3
-172 -16 -185 -13 -14 -56 -16 -310 -16 l-294 0 0 -201 0 -200 246 2 c218 2
247 0 262 -15 15 -14 17 -40 17 -176 0 -221 23 -204 -285 -208 l-240 -3 0
-195 0 -194 314 0 c279 0 315 -2 327 -17 10 -12 15 -60 17 -180 3 -139 1 -168
-13 -189 l-16 -25 -477 3 c-469 3 -478 3 -518 25 -44 24 -93 74 -121 126 -17
30 -18 90 -21 851 l-2 820 25 51 c28 58 53 84 110 114 39 20 51 21 507 21 452
0 468 -1 478 -19z m1336 -6 c14 -22 15 -47 10 -192 -5 -131 -9 -171 -21 -183
-13 -13 -43 -14 -185 -12 l-169 3 -3 -708 c-3 -791 1 -739 -76 -825 -115 -127
-309 -94 -395 66 -22 41 -22 46 -27 751 l-5 710 -157 1 c-113 0 -161 4 -172
14 -14 10 -16 42 -16 200 0 102 3 190 7 193 3 4 273 7 599 7 l594 0 16 -25z"/>
<path d="M1698 7503 c12 -2 30 -2 40 0 9 3 -1 5 -23 4 -22 0 -30 -2 -17 -4z"/>
<path d="M8610 5226 c0 -2 8 -10 18 -17 15 -13 16 -12 3 4 -13 16 -21 21 -21
13z"/>
<path d="M8909 4950 c-53 -9 -176 -69 -203 -99 -18 -19 -18 -22 -2 -46 23 -34
38 -39 80 -25 44 14 153 97 189 144 28 36 28 36 5 35 -13 -1 -43 -5 -69 -9z"/>
<path d="M1010 5116 c0 -2 7 -9 15 -16 12 -10 15 -10 15 4 0 9 -7 16 -15 16
-8 0 -15 -2 -15 -4z"/>
<path d="M8955 4084 c-87 -45 -291 -160 -327 -186 -35 -24 -39 -72 -7 -89 25
-13 84 2 129 31 14 9 70 41 125 70 173 91 212 118 223 149 8 24 7 32 -7 45
-27 24 -59 19 -136 -20z"/>
<path d="M1716 4751 c-3 -4 6 -6 19 -3 14 2 25 6 25 8 0 8 -39 4 -44 -5z"/>
<path d="M1634 4689 c-4 -7 -3 -9 4 -5 6 3 13 -2 15 -11 4 -16 5 -16 6 -1 1
21 -15 32 -25 17z"/>
<path d="M1670 4635 c-16 -19 4 -29 30 -15 25 13 25 16 0 23 -10 3 -24 -1 -30
-8z"/>
<path d="M262 4778 c-7 -7 -12 -19 -12 -27 0 -11 5 -8 16 7 18 25 15 39 -4 20z"/>
<path d="M1088 4743 c7 -3 16 -2 19 1 4 3 -2 6 -13 5 -11 0 -14 -3 -6 -6z"/>
<path d="M198 4673 c7 -3 16 -2 19 1 4 3 -2 6 -13 5 -11 0 -14 -3 -6 -6z"/>
<path d="M3160 4086 c0 -2 7 -9 15 -16 13 -11 14 -10 9 4 -5 14 -24 23 -24 12z"/>
<path d="M1000 3900 c0 -5 5 -10 10 -10 6 0 10 5 10 10 0 6 -4 10 -10 10 -5 0
-10 -4 -10 -10z"/>
<path d="M8885 3121 c-64 -16 -133 -69 -162 -126 -39 -73 -43 -120 -43 -490 0
-352 1 -361 23 -416 32 -77 73 -125 131 -154 124 -62 256 -5 323 139 l28 61 0
380 c0 346 -2 385 -19 434 -26 76 -95 144 -165 165 -59 17 -70 18 -116 7z"/>
<path d="M3359 7584 c18 -13 27 -14 44 -5 21 11 21 11 -2 5 -16 -4 -21 -3 -17
5 5 7 -3 11 -21 11 l-27 0 23 -16z"/>
<path d="M4090 7567 c0 -15 -4 -27 -10 -27 -19 0 -10 -16 9 -17 17 -1 19 4 16
29 -5 39 -15 49 -15 15z"/>
<path d="M3434 7555 c-1 -16 2 -22 12 -18 17 6 18 17 2 31 -10 8 -13 4 -14
-13z"/>
<path d="M6179 7548 c-1 -7 -1 -17 0 -22 1 -5 -5 -6 -14 -3 -9 4 -15 1 -15 -9
0 -11 -6 -15 -20 -11 -16 4 -20 0 -20 -19 0 -18 4 -22 17 -17 12 5 15 2 10
-10 -3 -9 -3 -17 2 -17 5 0 12 16 15 35 5 25 12 35 25 35 14 0 18 7 17 25 -1
25 -15 35 -17 13z"/>
<path d="M6240 7530 c0 -5 5 -10 11 -10 5 0 7 5 4 10 -3 6 -8 10 -11 10 -2 0
-4 -4 -4 -10z"/>
<path d="M4161 7504 c0 -11 3 -14 6 -6 3 7 2 16 -1 19 -3 4 -6 -2 -5 -13z"/>
<path d="M6221 7486 c-8 -9 -11 -19 -7 -23 9 -9 29 13 24 27 -2 8 -8 7 -17 -4z"/>
<path d="M4050 7453 c-21 -20 -22 -23 -7 -29 9 -3 17 -15 17 -25 0 -10 5 -19
10 -19 6 0 10 6 10 13 0 23 35 48 56 40 18 -7 18 -6 3 17 -20 30 -58 32 -89 3z
m35 -13 c3 -5 1 -10 -4 -10 -6 0 -11 5 -11 10 0 6 2 10 4 10 3 0 8 -4 11 -10z"/>
<path d="M4135 7470 c3 -5 12 -7 20 -3 21 7 19 13 -6 13 -11 0 -18 -4 -14 -10z"/>
<path d="M7790 7470 c-114 -6 -134 -15 -94 -41 19 -12 32 -15 40 -8 6 5 18 7
27 3 8 -3 18 0 23 7 5 9 2 10 -9 6 -9 -3 -17 -1 -19 5 -3 8 -10 8 -24 0 -12
-6 -26 -7 -34 -2 -23 14 39 20 253 24 109 3 201 6 203 9 5 5 -247 3 -366 -3z"/>
<path d="M8234 7472 c-7 -4 83 -7 200 -8 131 -1 192 2 161 7 -65 10 -347 11
-361 1z"/>
<path d="M8758 7463 c23 -2 61 -2 85 0 23 2 4 4 -43 4 -47 0 -66 -2 -42 -4z"/>
<path d="M6149 7441 c-12 -14 -13 -19 -2 -30 7 -6 13 -8 13 -3 0 6 9 12 20 15
25 6 27 37 3 36 -10 0 -25 -8 -34 -18z"/>
<path d="M7603 7443 c-19 -4 -21 -8 -13 -24 8 -14 21 -19 50 -19 43 0 61 15
30 25 -11 4 -18 11 -15 16 6 9 -11 10 -52 2z"/>
<path d="M7825 7443 c-12 -2 -26 -13 -33 -23 -11 -18 -10 -19 12 -10 24 9 46
-3 46 -24 0 -6 -4 -5 -9 3 -17 27 -28 0 -35 -81 -10 -120 -12 -123 -82 -174
-35 -26 -64 -48 -64 -48 0 -1 9 -29 20 -64 12 -37 17 -75 14 -90 -13 -53 -209
-414 -234 -431 -37 -24 -230 -179 -267 -214 -18 -17 -29 -35 -26 -40 3 -6 1
-7 -4 -4 -6 4 -39 -34 -74 -85 -35 -50 -100 -141 -143 -202 -44 -61 -112 -158
-152 -216 -40 -58 -81 -116 -91 -129 -25 -32 -51 -73 -60 -91 -4 -8 -14 -21
-22 -28 -23 -20 -13 -14 171 87 150 83 173 99 230 164 157 176 343 397 779
924 33 40 86 101 117 136 177 198 294 348 251 321 -6 -4 -8 11 -5 38 2 23 5
46 5 51 1 4 17 7 36 7 26 0 35 4 35 16 0 14 9 16 53 12 41 -3 54 -1 54 9 0 8
-7 11 -16 8 -12 -5 -12 -2 2 13 10 11 15 26 11 36 -8 20 -24 21 -24 1 0 -8 6
-15 13 -15 8 0 7 -4 -3 -10 -8 -5 -32 -10 -52 -10 -31 0 -38 4 -38 20 0 16 -7
20 -35 20 -21 0 -38 -6 -41 -14 -4 -11 -12 -11 -44 -2 -21 6 -42 15 -46 19
-12 11 -59 8 -72 -5 -9 -9 -16 -8 -29 4 -10 9 -28 19 -40 22 -13 4 -23 14 -23
22 0 8 3 13 8 12 4 -2 8 2 9 7 2 6 -5 10 -15 10 -23 1 -72 26 -72 37 0 5 10 6
23 3 17 -5 19 -4 7 4 -8 6 -17 10 -20 9 -3 0 -14 -3 -25 -5z m199 -160 c45 -5
54 -8 45 -19 -8 -10 -16 -11 -31 -3 -30 16 -36 0 -9 -22 36 -30 15 -22 -40 13
-27 18 -49 39 -49 47 0 10 3 11 14 2 8 -7 40 -15 70 -18z m51 -93 c3 -6 -1 -7
-9 -4 -18 7 -21 14 -7 14 6 0 13 -4 16 -10z m73 -75 c-3 -3 -9 2 -12 12 -6 14
-5 15 5 6 7 -7 10 -15 7 -18z"/>
<path d="M6100 7431 c0 -5 8 -15 18 -22 15 -12 16 -12 5 2 -7 9 -10 19 -6 22
3 4 1 7 -5 7 -7 0 -12 -4 -12 -9z"/>
<path d="M7985 7430 c3 -5 8 -10 11 -10 2 0 4 5 4 10 0 6 -5 10 -11 10 -5 0
-7 -4 -4 -10z"/>
<path d="M4169 7425 c-1 -3 -2 -9 -3 -15 0 -5 -10 -17 -21 -26 -19 -15 -19
-15 5 -1 14 8 23 18 22 22 -2 4 2 12 10 16 10 7 10 9 1 9 -7 0 -14 -2 -14 -5z"/>
<path d="M7543 7417 c-25 -11 -27 -16 -15 -34 9 -14 52 -6 52 9 0 5 -10 7 -22
3 -22 -6 -22 -6 -4 9 25 20 18 27 -11 13z"/>
<path d="M8165 7400 c3 -5 22 -10 41 -10 19 0 34 5 34 10 0 6 -18 10 -41 10
-24 0 -38 -4 -34 -10z"/>
<path d="M7480 7390 c-12 -8 -12 -10 2 -15 20 -8 41 2 33 16 -8 11 -16 11 -35
-1z"/>
<path d="M7713 7393 c9 -2 17 -9 17 -14 0 -6 5 -7 11 -3 14 8 -8 24 -31 23
-11 -1 -10 -3 3 -6z"/>
<path d="M8373 7383 c26 -2 67 -2 90 0 23 2 2 3 -48 3 -49 0 -68 -1 -42 -3z"/>
<path d="M8558 7374 c5 -9 7 -26 4 -38 -5 -19 -4 -20 12 -7 10 9 20 11 24 5 4
-5 15 -15 24 -22 14 -11 16 -11 11 6 -3 14 2 21 19 27 19 6 20 8 6 12 -10 2
-18 11 -18 19 0 10 -13 14 -45 14 -40 0 -45 -2 -37 -16z"/>
<path d="M7578 7373 c-24 -6 -23 -24 2 -30 18 -5 24 -17 23 -50 -1 -15 51 13
70 37 8 10 3 9 -16 -3 -38 -24 -46 -15 -11 12 31 24 24 28 -9 6 -20 -13 -24
-13 -35 5 -10 16 -9 18 5 13 11 -4 14 -3 9 5 -7 12 -9 13 -38 5z"/>
<path d="M4030 7360 c0 -19 24 -28 46 -18 33 15 30 23 -11 24 -19 0 -35 -2
-35 -6z"/>
<path d="M7440 7360 c0 -5 -6 -9 -12 -7 -7 1 -12 -4 -10 -12 1 -7 -2 -19 -8
-26 -8 -10 -6 -15 9 -20 20 -6 61 13 61 28 0 4 4 6 9 3 5 -3 14 0 20 8 9 11 5
16 -20 25 -39 14 -49 14 -49 1z"/>
<path d="M8137 7363 c-12 -11 -8 -23 8 -23 8 0 15 7 15 15 0 16 -12 20 -23 8z"/>
<path d="M8392 7360 c-33 -5 -33 -5 -12 -22 25 -22 34 -23 26 -2 -3 8 -2 12 4
9 5 -3 17 -2 26 3 23 13 -1 20 -44 12z"/>
<path d="M7690 7346 c7 -7 13 -7 20 0 6 6 3 10 -10 10 -13 0 -16 -4 -10 -10z"/>
<path d="M7970 7356 c0 -2 7 -9 15 -16 9 -7 15 -8 15 -2 0 5 -7 12 -15 16 -8
3 -15 4 -15 2z"/>
<path d="M8479 7339 c-8 -17 -8 -20 2 -17 7 2 13 12 15 21 3 23 -3 21 -17 -4z"/>
<path d="M9090 7351 c0 -6 4 -13 10 -16 6 -3 7 1 4 9 -7 18 -14 21 -14 7z"/>
<path d="M7378 7323 c-7 -10 -19 -19 -27 -21 -22 -5 -71 -42 -71 -53 0 -6 -4
-8 -9 -5 -12 8 -33 -19 -23 -29 4 -5 1 -5 -5 -1 -8 4 -23 -3 -37 -17 -19 -19
-22 -27 -13 -36 9 -9 7 -10 -7 -5 -16 6 -15 1 8 -29 16 -20 32 -37 37 -37 14
0 19 18 7 24 -7 3 -3 3 9 0 17 -4 21 -2 17 9 -3 8 -1 18 5 22 7 3 11 -3 12
-17 1 -15 3 -18 6 -6 7 27 33 30 55 6 11 -13 17 -17 13 -10 -3 6 -1 12 4 12
21 0 11 21 -14 30 -29 11 -30 14 -9 34 14 14 17 14 31 1 8 -8 19 -12 25 -9 7
4 6 9 -2 14 -9 5 -9 9 -1 14 6 4 11 13 11 19 0 7 -4 6 -11 -3 -9 -13 -10 -13
-6 0 2 8 12 15 23 15 18 0 33 12 34 26 0 3 -12 11 -26 18 -19 8 -25 17 -21 31
6 25 2 25 -15 3z m-18 -84 c-10 -17 -30 -27 -30 -13 0 15 22 44 31 39 5 -4 5
-13 -1 -26z m-60 -23 c0 -2 -7 -9 -15 -16 -12 -10 -15 -10 -15 4 0 9 7 16 15
16 8 0 15 -2 15 -4z"/>
<path d="M8427 7320 c-30 -24 -35 -65 -5 -46 10 6 13 13 7 15 -6 2 -1 14 12
27 27 29 21 31 -14 4z"/>
<path d="M8707 7333 c-7 -11 46 -73 62 -73 19 0 12 15 -23 49 -19 18 -36 29
-39 24z"/>
<path d="M7520 7310 c0 -11 5 -20 10 -20 6 0 10 9 10 20 0 11 -4 20 -10 20 -5
0 -10 -9 -10 -20z"/>
<path d="M9124 7298 c6 -20 -12 -32 -63 -43 -24 -5 -32 -4 -26 4 4 8 -1 10
-17 6 -13 -3 -35 -2 -49 3 -19 8 -30 6 -48 -9 -13 -10 -27 -19 -32 -19 -14 0
-11 28 4 33 6 3 -3 6 -20 6 -18 1 -33 -3 -33 -8 0 -5 -10 -12 -22 -16 -20 -6
-20 -8 -5 -12 11 -3 17 -14 17 -33 0 -16 6 -30 13 -33 7 -3 0 -9 -15 -16 -54
-21 -47 -28 262 -266 224 -172 290 -226 290 -236 0 -5 5 -9 12 -9 6 0 22 -10
34 -21 l23 -22 -9 35 c-38 137 -242 581 -296 643 -14 17 -23 22 -20 13z m-153
-51 c-6 -8 -7 -18 -3 -22 4 -5 1 -5 -5 -1 -19 10 -16 36 3 36 13 0 14 -3 5
-13z"/>
<path d="M7448 7272 c-5 -26 -4 -62 3 -62 14 0 21 20 7 20 -9 1 -7 5 5 14 9 7
17 16 17 19 0 8 -30 17 -32 9z"/>
<path d="M7549 7273 c-1 -5 -1 -12 0 -16 1 -5 -9 -6 -21 -3 -13 3 -17 3 -10 0
10 -5 10 -9 1 -20 -6 -8 -8 -14 -5 -14 11 0 66 43 66 52 0 10 -30 11 -31 1z"/>
<path d="M8793 7216 c1 -11 9 -21 17 -23 10 -3 11 -2 4 4 -6 4 -14 15 -17 23
-5 11 -6 9 -4 -4z"/>
<path d="M7468 7199 c-10 -5 -18 -7 -18 -4 0 3 -14 -2 -31 -10 -17 -9 -37 -14
-44 -11 -9 3 -12 0 -8 -10 6 -17 13 -17 37 1 11 8 22 11 25 7 3 -5 21 2 40 15
34 23 32 32 -1 12z"/>
<path d="M8240 7186 c-55 -18 -63 -25 -45 -42 14 -14 19 -14 48 4 17 10 31 25
29 32 -2 8 3 10 13 6 9 -3 13 -2 10 4 -7 12 -9 12 -55 -4z m14 -21 c-22 -16
-44 -19 -44 -6 0 8 16 14 54 20 6 0 1 -6 -10 -14z"/>
<path d="M7305 7130 c-3 -5 -1 -10 4 -10 6 0 11 5 11 10 0 6 -2 10 -4 10 -3 0
-8 -4 -11 -10z"/>
<path d="M7275 7099 c-18 -7 -18 -8 -2 -8 10 -1 15 -6 12 -11 -4 -6 -16 -8
-27 -4 -14 4 -18 3 -13 -5 4 -7 1 -20 -6 -29 -12 -15 -12 -15 7 1 11 9 25 17
30 17 5 1 22 11 38 24 28 23 28 23 5 23 -13 0 -33 -3 -44 -8z"/>
<path d="M7177 7034 c-13 -13 -7 -21 13 -20 11 0 20 6 21 11 0 12 -24 18 -34
9z"/>
<path d="M7170 6978 c-12 -22 -12 -22 6 -6 10 10 15 20 12 24 -4 3 -12 -5 -18
-18z"/>
<path d="M2648 6963 c6 -2 18 -2 25 0 6 3 1 5 -13 5 -14 0 -19 -2 -12 -5z"/>
<path d="M7025 6899 c-4 -6 -5 -12 -2 -15 2 -3 7 2 10 11 7 17 1 20 -8 4z"/>
<path d="M2615 6871 c-6 -21 -25 -29 -25 -11 0 6 -5 10 -10 10 -16 0 156 -238
196 -271 22 -18 217 -110 349 -164 50 -21 128 -56 174 -78 46 -22 97 -40 112
-40 16 0 26 -4 24 -8 -3 -3 1 -6 8 -6 18 1 77 -24 77 -32 0 -4 18 -14 40 -21
21 -7 37 -18 33 -23 -3 -6 -1 -7 5 -3 8 5 9 13 3 24 -5 10 -7 29 -4 44 4 22 0
29 -31 43 -20 10 -41 26 -47 37 -5 10 -14 16 -20 13 -5 -4 -9 -1 -9 4 0 6 -10
11 -22 11 -11 0 -36 11 -54 25 -18 14 -37 25 -42 25 -6 0 -12 7 -16 15 -3 8
-12 15 -20 15 -18 0 -130 60 -134 72 -2 4 -14 8 -26 8 -13 0 -43 13 -67 30
-24 16 -48 30 -52 30 -14 0 -40 30 -26 30 9 0 8 4 -1 15 -7 8 -24 15 -39 14
l-26 0 24 -10 c35 -14 20 -21 -17 -8 -18 6 -32 18 -32 26 0 10 -6 13 -16 9
-10 -4 -13 -2 -8 6 5 8 2 9 -9 5 -16 -6 -65 9 -77 24 -3 3 -21 11 -40 18 -19
6 -46 21 -60 32 -14 11 -19 17 -11 13 11 -6 13 -1 8 26 -4 18 -7 37 -7 42 0 5
-4 6 -10 3 -5 -3 -10 -1 -10 5 0 6 -4 9 -9 5 -6 -3 -6 -18 -1 -36 7 -22 6 -29
-3 -26 -7 2 -12 10 -12 18 0 21 -32 52 -40 39 -3 -5 -3 -15 1 -22 4 -7 3 -8
-4 -4 -7 4 -12 2 -12 -5 0 -7 -3 -10 -6 -7 -3 4 0 16 6 28 6 12 9 24 7 27 -3
2 -8 -5 -12 -16z"/>
<path d="M3043 6877 c0 -9 6 -13 14 -10 7 3 13 1 13 -4 0 -5 14 -17 30 -27 17
-9 28 -21 25 -27 -3 -5 0 -6 7 -4 7 3 44 -15 82 -40 38 -25 72 -45 77 -45 4 0
21 -11 38 -26 16 -14 33 -24 36 -24 3 1 47 -24 97 -57 49 -32 97 -62 106 -68
10 -5 29 -18 43 -27 l26 -17 21 87 c12 48 18 88 14 90 -14 4 -266 173 -285
190 -27 24 -344 32 -344 9z"/>
<path d="M7036 6844 c-4 -9 -4 -19 -1 -22 2 -3 7 3 11 12 4 9 4 19 1 22 -2 3
-7 -3 -11 -12z"/>
<path d="M7060 6821 c0 -11 5 -23 10 -26 6 -4 10 5 10 19 0 14 -4 26 -10 26
-5 0 -10 -9 -10 -19z"/>
<path d="M8391 6702 c-120 -168 -120 -200 -5 -219 27 -4 32 -2 36 18 3 13 17
77 32 142 42 193 37 198 -63 59z"/>
<path d="M2758 6775 c13 -9 26 -14 29 -11 8 8 3 12 -27 21 l-25 7 23 -17z"/>
<path d="M2800 6760 c0 -6 7 -10 15 -10 8 0 15 2 15 4 0 2 -7 6 -15 10 -8 3
-15 1 -15 -4z"/>
<path d="M6935 6750 c-3 -5 -1 -10 4 -10 6 0 11 5 11 10 0 6 -2 10 -4 10 -3 0
-8 -4 -11 -10z"/>
<path d="M6888 6733 c7 -3 16 -2 19 1 4 3 -2 6 -13 5 -11 0 -14 -3 -6 -6z"/>
<path d="M6610 6711 c0 -5 -3 -17 -7 -27 -5 -13 -3 -15 7 -9 10 6 12 4 7 -8
-3 -9 -2 -27 2 -39 7 -17 9 -8 8 35 -1 31 -5 57 -9 57 -5 0 -8 -4 -8 -9z"/>
<path d="M6900 6712 c0 -5 7 -13 16 -16 10 -4 14 -1 12 6 -5 15 -28 23 -28 10z"/>
<path d="M3060 6630 c8 -5 22 -9 30 -9 10 0 8 3 -5 9 -27 12 -43 12 -25 0z"/>
<path d="M6680 6630 c0 -5 5 -10 11 -10 5 0 7 5 4 10 -3 6 -8 10 -11 10 -2 0
-4 -4 -4 -10z"/>
<path d="M6785 6620 c3 -5 8 -10 11 -10 2 0 4 5 4 10 0 6 -5 10 -11 10 -5 0
-7 -4 -4 -10z"/>
<path d="M3360 6570 c0 -5 5 -10 10 -10 6 0 10 5 10 10 0 6 -4 10 -10 10 -5 0
-10 -4 -10 -10z"/>
<path d="M6705 6520 c3 -5 8 -10 11 -10 2 0 4 5 4 10 0 6 -5 10 -11 10 -5 0
-7 -4 -4 -10z"/>
<path d="M6700 6440 c0 -5 5 -10 11 -10 5 0 7 5 4 10 -3 6 -8 10 -11 10 -2 0
-4 -4 -4 -10z"/>
<path d="M6668 6360 c-4 -14 -7 -47 -7 -75 1 -49 1 -49 10 -17 6 19 9 53 7 75
-3 36 -4 39 -10 17z"/>
<path d="M5450 6052 c0 -24 -4 -51 -9 -60 -5 -10 -12 -44 -15 -77 -4 -33 -14
-99 -23 -146 -9 -48 -13 -94 -10 -102 5 -14 148 -139 210 -184 41 -30 74 -29
160 6 118 47 363 170 383 193 28 30 26 101 -3 130 -44 44 -138 18 -150 -42 -3
-16 -13 -32 -22 -34 -9 -3 -65 -16 -126 -31 -60 -14 -116 -28 -123 -30 -14 -5
-27 14 -146 220 -48 83 -96 161 -106 175 l-20 25 0 -43z"/>
<path d="M6509 5843 c-13 -16 -12 -17 4 -4 9 7 17 15 17 17 0 8 -8 3 -21 -13z"/>
<path d="M7128 5474 c-172 -169 -342 -335 -377 -369 -51 -50 -62 -66 -56 -84
22 -71 160 33 510 384 302 302 347 365 268 373 -30 3 -54 -18 -345 -304z"/>
<path d="M2260 5486 c0 -2 8 -10 18 -17 15 -13 16 -12 3 4 -13 16 -21 21 -21
13z"/>
<path d="M143 5473 c15 -2 39 -2 55 0 15 2 2 4 -28 4 -30 0 -43 -2 -27 -4z"/>
<path d="M248 5473 c-10 -2 -15 -10 -11 -19 4 -10 19 -13 55 -12 27 1 45 4 39
6 -6 2 -9 7 -7 11 3 4 -12 6 -32 4 -32 -2 -34 -1 -12 6 20 7 21 9 5 9 -11 0
-28 -2 -37 -5z"/>
<path d="M420 5402 c0 -6 -7 -9 -15 -6 -8 4 -15 1 -15 -5 0 -6 6 -11 14 -11
17 0 31 18 22 27 -3 4 -6 1 -6 -5z"/>
<path d="M1012 5250 c-9 -16 -21 -30 -25 -30 -5 0 -5 -4 -2 -10 3 -5 11 -10
16 -10 6 0 8 3 5 8 -2 4 2 16 10 27 13 18 14 18 14 0 0 -25 8 -15 14 18 6 36
-11 34 -32 -3z"/>
<path d="M395 5230 c3 -5 8 -10 11 -10 2 0 4 5 4 10 0 6 -5 10 -11 10 -5 0 -7
-4 -4 -10z"/>
<path d="M1103 5227 c-26 -11 -30 -27 -8 -27 8 0 15 4 15 9 0 5 10 11 23 13
16 2 18 5 7 9 -8 4 -25 2 -37 -4z"/>
<path d="M1179 5217 c-14 -11 -15 -14 -2 -26 8 -8 18 -10 22 -5 3 5 15 11 26
12 27 5 33 12 9 12 -11 0 -24 4 -29 9 -6 6 -16 5 -26 -2z"/>
<path d="M1126 5172 c-9 -15 9 -28 42 -29 36 -1 40 4 15 23 -20 15 -49 18 -57
6z"/>
<path d="M1710 4926 c0 -3 9 -10 20 -16 11 -6 20 -8 20 -6 0 3 -9 10 -20 16
-11 6 -20 8 -20 6z"/>
<path d="M1980 4870 c-14 -4 -20 -9 -15 -10 6 -1 18 -3 28 -5 9 -2 15 0 12 5
-3 5 1 11 7 13 20 8 -4 6 -32 -3z"/>
<path d="M2006 4831 c-4 -5 3 -7 14 -4 23 6 26 13 6 13 -8 0 -17 -4 -20 -9z"/>
<path d="M1925 4819 c-10 -15 0 -21 27 -17 l23 3 -22 13 c-15 8 -24 9 -28 1z"/>
<path d="M7760 4701 c0 -7 -5 -9 -12 -5 -7 5 -8 3 -3 -5 5 -9 10 -10 18 -2 6
6 8 14 4 18 -4 3 -7 1 -7 -6z"/>
<path d="M2477 4653 c-3 -5 6 -9 20 -10 19 -1 22 1 12 8 -17 11 -26 11 -32 2z"/>
<path d="M2506 4575 c21 -30 39 -53 41 -51 3 2 -3 16 -12 29 -14 21 -14 30 -4
49 8 14 14 18 17 10 2 -6 8 -10 13 -7 5 4 6 -1 3 -9 -4 -10 -1 -16 8 -16 26 0
16 29 -15 41 -24 10 -30 10 -38 -2 -6 -11 -11 -11 -21 -1 -29 29 -25 8 8 -43z"/>
<path d="M2540 4570 c6 -11 12 -20 14 -20 2 0 2 9 -1 20 -3 11 -9 20 -15 20
-5 0 -4 -9 2 -20z"/>
<path d="M2621 4564 c7 -9 15 -12 17 -6 2 6 11 8 20 5 9 -3 14 -3 11 1 -4 4
-19 9 -34 12 -25 4 -27 3 -14 -12z"/>
<path d="M6342 4510 c-13 -11 -88 -52 -165 -91 -78 -39 -172 -89 -209 -110
-36 -22 -72 -39 -79 -39 -8 0 -10 -14 -5 -52 10 -72 17 -98 27 -98 9 0 133 71
256 147 73 45 80 54 206 251 12 18 -5 14 -31 -8z"/>
<path d="M2750 4440 c0 -11 6 -20 13 -20 19 0 27 10 20 26 -8 21 -33 17 -33
-6z"/>
<path d="M2605 4410 c-3 -5 -1 -10 4 -10 6 0 11 5 11 10 0 6 -2 10 -4 10 -3 0
-8 -4 -11 -10z"/>
<path d="M2840 4365 c-7 -9 -10 -18 -7 -21 3 -3 10 4 17 15 13 25 8 27 -10 6z"/>
<path d="M2480 4311 c0 -5 7 -14 15 -21 8 -7 15 -21 15 -31 0 -11 5 -19 10
-19 14 0 13 6 -6 46 -15 32 -34 46 -34 25z"/>
<path d="M2720 4142 c0 -12 49 -37 57 -28 3 2 -6 7 -19 11 -13 4 -26 13 -30
19 -5 8 -8 7 -8 -2z"/>
<path d="M3300 4130 c-27 -17 0 -24 33 -7 30 15 31 16 7 16 -14 0 -32 -3 -40
-9z"/>
<path d="M2828 4113 c6 -2 18 -2 25 0 6 3 1 5 -13 5 -14 0 -19 -2 -12 -5z"/>
<path d="M3235 4110 c-13 -5 -14 -9 -5 -9 8 0 24 4 35 9 13 5 14 9 5 9 -8 0
-24 -4 -35 -9z"/>
<path d="M3371 4101 c-8 -5 -9 -11 -3 -15 5 -3 15 1 22 9 14 16 3 20 -19 6z"/>
<path d="M3470 4082 c-8 -4 -15 -13 -16 -19 -1 -7 -2 -19 -2 -27 -1 -7 -12
-17 -24 -21 -20 -6 -20 -8 -5 -12 9 -2 17 -9 17 -14 0 -6 10 -9 23 -7 15 2 23
11 24 28 1 14 5 37 9 53 6 27 1 31 -26 19z"/>
<path d="M3517 4074 c3 -8 9 -11 14 -8 6 3 17 0 25 -7 8 -6 17 -9 20 -6 6 6
-32 30 -53 33 -6 1 -9 -4 -6 -12z"/>
<path d="M3539 4042 c12 -9 12 -13 2 -26 -9 -11 -10 -16 -2 -16 6 0 11 5 11
10 0 6 7 10 15 10 8 0 15 5 15 10 0 6 -4 10 -9 10 -5 0 -18 3 -28 6 -14 5 -15
4 -4 -4z"/>
<path d="M3602 4034 c10 -10 20 -16 22 -13 3 3 -5 11 -17 18 -21 13 -21 12 -5
-5z"/>
<path d="M3580 4010 c-9 -6 -10 -10 -3 -10 6 0 15 5 18 10 8 12 4 12 -15 0z"/>
<path d="M3930 3816 c0 -2 7 -7 16 -10 8 -3 12 -2 9 4 -6 10 -25 14 -25 6z"/>
<path d="M3981 3770 c-9 -5 -4 -7 13 -7 29 0 32 2 13 10 -8 3 -20 2 -26 -3z"/>
<path d="M4533 880 c-55 -24 -83 -70 -83 -133 0 -82 48 -142 125 -154 51 -8
136 35 158 82 23 48 22 112 -3 153 -22 35 -88 72 -130 72 -14 0 -44 -9 -67
-20z"/>
<path d="M5044 875 c-98 -59 -97 -203 3 -262 112 -65 257 25 240 151 -15 113
-143 171 -243 111z"/>
<path d="M5613 886 c-30 -11 -31 -12 -12 -24 16 -10 20 -10 25 3 4 10 20 15
47 15 46 0 46 5 2 12 -16 3 -44 0 -62 -6z"/>
<path d="M5725 868 c5 -11 55 -42 55 -33 0 2 -13 13 -30 25 -17 12 -28 15 -25
8z"/>
<path d="M1120 770 c-11 -11 -20 -27 -20 -35 0 -8 9 -24 20 -35 20 -20 33 -20
1549 -20 l1530 0 20 26 c17 21 19 30 9 48 -6 11 -16 24 -22 28 -6 4 -698 8
-1538 8 -1515 0 -1528 0 -1548 -20z"/>
<path d="M6042 774 c-27 -18 -29 -55 -4 -77 17 -16 138 -17 1534 -17 1455 0
1516 1 1531 18 22 24 21 55 -1 75 -17 16 -138 17 -1528 17 -1350 0 -1512 -2
-1532 -16z"/>
<path d="M5511 709 c-1 -8 6 -24 15 -35 15 -19 15 -19 6 1 -5 11 -12 27 -15
35 -5 13 -6 13 -6 -1z"/>
</g>
</svg>
